<svg class="main-svg" xmlns="http://www.w3.org/2000/svg" xmlns:xlink="http://www.w3.org/1999/xlink" width="1200" height="1220" style="" viewBox="0 0 600 610"><rect x="0" y="0" width="600" height="610" style="fill: rgb(255, 255, 255); fill-opacity: 1;"/><defs id="defs-b9ed1d"><g class="clips"><clipPath id="clipb9ed1dxyplot" class="plotclip"><rect width="520" height="211"/></clipPath><clipPath class="axesclip" id="clipb9ed1dx"><rect x="60" y="0" width="520" height="610"/></clipPath><clipPath class="axesclip" id="clipb9ed1dy"><rect x="0" y="50" width="600" height="211"/></clipPath><clipPath class="axesclip" id="clipb9ed1dxy"><rect x="60" y="50" width="520" height="211"/></clipPath></g><g class="gradients"/><g class="patterns"/></defs><g class="bglayer"/><g class="layer-below"><g class="imagelayer"/><g class="shapelayer"/></g><g class="cartesianlayer"><g class="subplot xy"><g class="layer-subplot"><g class="shapelayer"/><g class="imagelayer"/></g><g class="minor-gridlayer"><g class="x"/><g class="y"/></g><g class="gridlayer"><g class="x"><path class="xgrid crisp" transform="translate(113.78999999999999,0)" d="M0,50v211" style="stroke: rgb(0, 0, 0); stroke-opacity: 0.05; stroke-width: 1px;"/><path class="xgrid crisp" transform="translate(185.51999999999998,0)" d="M0,50v211" style="stroke: rgb(0, 0, 0); stroke-opacity: 0.05; stroke-width: 1px;"/><path class="xgrid crisp" transform="translate(257.24,0)" d="M0,50v211" style="stroke: rgb(0, 0, 0); stroke-opacity: 0.05; stroke-width: 1px;"/><path class="xgrid crisp" transform="translate(328.97,0)" d="M0,50v211" style="stroke: rgb(0, 0, 0); stroke-opacity: 0.05; stroke-width: 1px;"/><path class="xgrid crisp" transform="translate(400.69,0)" d="M0,50v211" style="stroke: rgb(0, 0, 0); stroke-opacity: 0.05; stroke-width: 1px;"/><path class="xgrid crisp" transform="translate(472.41,0)" d="M0,50v211" style="stroke: rgb(0, 0, 0); stroke-opacity: 0.05; stroke-width: 1px;"/><path class="xgrid crisp" transform="translate(544.14,0)" d="M0,50v211" style="stroke: rgb(0, 0, 0); stroke-opacity: 0.05; stroke-width: 1px;"/></g><g class="y"><path class="ygrid crisp" transform="translate(0,204.48)" d="M60,0h520" style="stroke: rgb(0, 0, 0); stroke-opacity: 0.05; stroke-width: 1px;"/><path class="ygrid crisp" transform="translate(0,147.95999999999998)" d="M60,0h520" style="stroke: rgb(0, 0, 0); stroke-opacity: 0.05; stroke-width: 1px;"/><path class="ygrid crisp" transform="translate(0,91.43)" d="M60,0h520" style="stroke: rgb(0, 0, 0); stroke-opacity: 0.05; stroke-width: 1px;"/></g></g><g class="zerolinelayer"><path class="yzl zl crisp" transform="translate(0,261)" d="M60,0h520" style="stroke: rgb(0, 0, 0); stroke-opacity: 0.05; stroke-width: 1px;"/></g><g class="layer-between"><g class="shapelayer"/><g class="imagelayer"/></g><path class="xlines-below"/><path class="ylines-below"/><g class="overlines-below"/><g class="xaxislayer-below"/><g class="yaxislayer-below"/><g class="overaxes-below"/><g class="overplot"><g class="xy" transform="translate(60,50)" clip-path="url(#clipb9ed1dxyplot)"><g class="scatterlayer mlayer"><g class="trace scatter trace0d3e89" style="stroke-miterlimit: 2; opacity: 1;"><g class="fills"/><g class="errorbars"/><g class="lines"><path class="js-line" d="M0,207.5L14.34,207.58L17.93,207.45L28.69,206.89L32.28,206.93L53.79,207.05L57.38,206.57L78.9,206.56L82.48,206.79L111.17,205.71L114.76,206.03L125.52,206.06L129.1,205.83L136.28,204.45L139.86,199.47L143.45,200.95L147.03,195.73L150.62,207.64L154.21,174.18L157.79,179.65L161.38,206.27L164.97,200.76L168.55,204.62L172.14,208.1L175.72,204.85L179.31,210.68L182.9,207.09L186.48,209.41L190.07,208.37L193.66,201.72L197.24,209.23L200.83,204.69L204.41,209.66L208,209.44L211.59,206.79L215.17,202.33L218.76,208.36L222.34,210.71L225.93,209.69L233.1,208.12L236.69,208.78L240.28,209.64L243.86,209.55L247.45,205.64L251.03,203.17L254.62,202.07L258.21,202.51L268.97,204.99L272.55,205.15L279.72,203.76L283.31,202.09L290.48,199.33L294.07,199.91L304.83,204.23L308.41,204.76L315.59,203.91L319.17,202.33L326.34,199.22L329.93,199.45L344.28,206.19L347.86,206.63L362.21,206.13L365.79,206.93L380.14,209.89L383.72,210.27L416,210.97L419.59,210.98L520,210.8" style="vector-effect: none; fill: none; stroke: rgb(124, 181, 236); stroke-opacity: 1; stroke-width: 2px; opacity: 1;"/></g><g class="points"/><g class="text"/></g><g class="trace scatter traceaac196" style="stroke-miterlimit: 2; opacity: 1;"><g class="fills"/><g class="errorbars"/><g class="lines"><path class="js-line" d="M0,207.5L17.93,207.43L21.52,207.15L35.86,207.06L39.45,207.12L53.79,207.03L57.38,206.71L71.72,206.33L75.31,206.51L89.66,206.59L93.24,206.27L107.59,205.62L111.17,205.91L125.52,206.32L129.1,205.96L139.86,204.96L143.45,204.78L164.97,205.83L168.55,205.15L172.14,204.06L175.72,204.82L179.31,204.02L182.9,204.19L197.24,205.67L200.83,205.47L208,203.93L211.59,203.06L215.17,202.21L218.76,202.26L222.34,201.28L225.93,208.07L229.52,205.19L233.1,205.44L240.28,204.8L243.86,203.88L251.03,201.77L254.62,201.13L268.97,204.81L272.55,204.95L279.72,203.59L283.31,201.89L290.48,199.01L294.07,199.7L304.83,204.11L308.41,204.65L315.59,203.8L319.17,202.2L326.34,199.05L329.93,199.27L344.28,206.12L347.86,206.58L362.21,206.07L365.79,206.89L380.14,209.88L383.72,210.27L416,210.97L419.59,210.98L520,210.8" style="vector-effect: none; fill: none; stroke: rgb(67, 67, 72); stroke-opacity: 1; stroke-width: 2px; opacity: 1;"/></g><g class="points"/><g class="text"/></g><g class="trace scatter trace07d7b1" style="stroke-miterlimit: 2; opacity: 1;"><g class="fills"/><g class="errorbars"/><g class="lines"><path class="js-line" d="M0,207.8L10.76,208.12L14.34,207.98L32.28,207.17L35.86,207.33L50.21,207.56L53.79,207.38L64.55,206.29L68.14,206.37L89.66,206.96L93.24,206.39L104,205.43L107.59,205.5L121.93,206.79L125.52,206.44L132.69,204.92L136.28,204.32L139.86,200.12L143.45,201.71L147.03,197.43L150.62,207.86L154.21,184.55L157.79,179.97L161.38,206.6L164.97,200.3L168.55,204.9L172.14,207.8L175.72,203.14L179.31,210.57L182.9,206.3L186.48,208.96L190.07,208.22L193.66,201.71L197.24,208.95L200.83,203.98L204.41,209.87L208,209.14L211.59,206.21L215.17,200.56L218.76,208.61L222.34,210.7L229.52,208.31L233.1,208.1L243.86,209.56L247.45,205.53L251.03,202.64L254.62,201.36L261.79,204.2L265.38,205.74L272.55,206.88L276.14,206.49L279.72,205.28L283.31,202.97L290.48,198.6L294.07,200.11L301.24,205.32L304.83,206.77L312,207.43L315.59,206.7L326.34,201.25L329.93,201.4L340.69,207.97L344.28,208.88L351.45,209.15L355.03,208.87L365.79,208.87L369.38,209.37L383.72,210.79L387.31,210.84L491.31,210.99L494.9,211L520,210.99" style="vector-effect: none; fill: none; stroke: rgb(144, 237, 125); stroke-opacity: 1; stroke-width: 2px; opacity: 1;"/></g><g class="points"/><g class="text"/></g><g class="trace scatter trace7491b8" style="stroke-miterlimit: 2; opacity: 1;"><g class="fills"/><g class="errorbars"/><g class="lines"><path class="js-line" d="M0,207.8L14.34,208.02L17.93,207.74L32.28,207.14L35.86,207.39L53.79,207.37L57.38,206.91L68.14,206.33L71.72,206.49L86.07,207.23L89.66,206.97L104,205.4L107.59,205.54L121.93,206.89L125.52,206.68L143.45,204.23L147.03,204.87L154.21,206.3L157.79,206.59L168.55,205.29L172.14,203.66L175.72,204.33L179.31,203.37L186.48,204.86L190.07,205.71L197.24,206.48L200.83,206.07L208,203.87L211.59,202.56L215.17,201.52L218.76,201.82L222.34,201.61L225.93,208.37L229.52,206.14L233.1,206.57L240.28,205.71L243.86,204.32L251.03,201.22L254.62,200.35L268.97,206.55L272.55,206.75L276.14,206.38L279.72,205.18L290.48,198.3L294.07,199.93L301.24,205.21L304.83,206.71L312,207.37L315.59,206.65L326.34,201.12L329.93,201.26L340.69,207.93L344.28,208.85L351.45,209.13L355.03,208.84L365.79,208.84L369.38,209.36L383.72,210.79L387.31,210.84L491.31,210.99L494.9,211L520,210.99" style="vector-effect: none; fill: none; stroke: rgb(247, 163, 92); stroke-opacity: 1; stroke-width: 2px; opacity: 1;"/></g><g class="points"/><g class="text"/></g><g class="trace scatter trace222d87" style="stroke-miterlimit: 2; opacity: 1;"><g class="fills"/><g class="errorbars"/><g class="lines"><path class="js-line" d="M0,201.79L10.76,202.36L14.34,201.91L39.45,200.45L43.03,200.8L53.79,200.27L57.38,199.02L75.31,197.91L78.9,198.25L82.48,198.76L86.07,198.16L89.66,198.14L93.24,197.09L100.41,195.04L104,195.29L111.17,195.13L114.76,195.68L125.52,195.9L129.1,193.94L132.69,190.89L136.28,191.47L139.86,175.93L143.45,181.13L147.03,166.27L150.62,192.88L154.21,10.55L157.79,120.13L161.38,179.29L164.97,180.33L168.55,192.19L172.14,200.06L175.72,194.94L179.31,210.15L182.9,201.71L186.48,207.56L190.07,203.67L193.66,185.05L197.24,205.84L200.83,198.06L204.41,200.11L208,205.95L211.59,198.38L215.17,181.77L218.76,181.52L222.34,208.6L225.93,209.21L229.52,203.69L233.1,198.95L236.69,199.29L243.86,207.43L247.45,194.09L251.03,182.4L254.62,177.15L258.21,177.14L261.79,178.82L268.97,183.5L272.55,183.87L276.14,183.1L279.72,181.02L290.48,168.97L294.07,170.1L297.66,173.11L301.24,177.95L304.83,181.38L308.41,183.45L312,183.79L315.59,182.94L319.17,179.84L322.76,178.04L326.34,175.7L329.93,176.59L344.28,194.44L347.86,196.2L358.62,198.3L362.21,199.6L372.97,205.52L376.55,207.07L383.72,209.43L387.31,209.86L408.83,210.94L412.41,210.96L516.41,210.98L520,208.25" style="vector-effect: none; fill: none; stroke: rgb(128, 133, 233); stroke-opacity: 1; stroke-width: 2px; opacity: 1;"/></g><g class="points"/><g class="text"/></g><g class="trace scatter tracef012d9" style="stroke-miterlimit: 2; opacity: 1;"><g class="fills"/><g class="errorbars"/><g class="lines"><path class="js-line" d="M0,201.79L10.76,202.43L14.34,202L35.86,200.37L39.45,200.47L46.62,200.7L50.21,200.47L57.38,199.41L60.97,198.81L68.14,197.85L71.72,197.92L89.66,198.43L93.24,197.46L104,195.12L107.59,195.07L121.93,196.45L125.52,196.2L143.45,190.98L147.03,191.5L157.79,193.66L161.38,192.97L164.97,192.65L168.55,191.32L172.14,187.5L175.72,190.19L179.31,187.01L182.9,186.6L190.07,189.02L193.66,189.93L197.24,190.4L200.83,189.7L204.41,188.07L208,184.69L215.17,178.72L218.76,177.66L222.34,172.71L225.93,198.76L229.52,186.67L233.1,187.08L236.69,186.61L240.28,185.27L247.45,179.33L251.03,175.89L254.62,173.24L258.21,175.05L268.97,182.67L272.55,183.02L276.14,182.26L279.72,180.25L290.48,167.85L294.07,169.34L297.66,172.34L301.24,177.27L304.83,180.83L308.41,182.88L312,183.23L315.59,182.45L319.17,179.36L322.76,177.52L326.34,175.19L329.93,176.03L344.28,194.2L347.86,196L358.62,198.13L362.21,199.46L372.97,205.46L376.55,207.03L383.72,209.42L387.31,209.85L408.83,210.94L412.41,210.96L516.41,210.98L520,208.27" style="vector-effect: none; fill: none; stroke: rgb(241, 92, 128); stroke-opacity: 1; stroke-width: 2px; opacity: 1;"/></g><g class="points"/><g class="text"/></g><g class="trace scatter trace06101f" style="stroke-miterlimit: 2; opacity: 1;"><g class="fills"/><g class="errorbars"/><g class="lines"><path class="js-line" d="M0,207.15L17.93,207.06L21.52,206.8L114.76,205.13L118.34,205.33L129.1,204.67L132.69,204.13L136.28,203.92L139.86,200.74L143.45,202.98L147.03,199.78L150.62,205.93L154.21,191.42L157.79,154.28L161.38,196.39L168.55,204.33L172.14,207.67L175.72,203.66L179.31,210.75L182.9,208L186.48,209.28L190.07,208.92L193.66,202.01L197.24,209.2L200.83,206.99L204.41,208.89L208,209.55L211.59,207.77L215.17,203.49L218.76,205.65L222.34,210.63L225.93,210.16L229.52,208.26L233.1,207.31L236.69,207.95L243.86,210.18L247.45,207.2L251.03,205.13L254.62,204.17L261.79,204.51L265.38,204.93L276.14,205.39L279.72,205.1L290.48,203.75L294.07,203.99L312,205.87L315.59,205.75L329.93,205.08L333.52,205.63L347.86,207.59L351.45,207.68L362.21,208.27L365.79,208.77L383.72,210.43L387.31,210.56L433.93,211L437.52,211L520,210.73" style="vector-effect: none; fill: none; stroke: rgb(228, 211, 84); stroke-opacity: 1; stroke-width: 2px; opacity: 1;"/></g><g class="points"/><g class="text"/></g><g class="trace scatter trace506e0f" style="stroke-miterlimit: 2; opacity: 1;"><g class="fills"/><g class="errorbars"/><g class="lines"><path class="js-line" d="M0,207.15L53.79,206.46L57.38,206.13L78.9,205.78L82.48,205.91L96.83,205.32L100.41,205.01L132.69,204.73L136.28,204.1L143.45,204.13L147.03,204.28L164.97,204.89L168.55,204.45L172.14,203.52L175.72,204.51L179.31,203.73L182.9,203.79L200.83,204.69L204.41,204.44L218.76,202.71L222.34,201.33L225.93,207.98L229.52,204.84L243.86,204.48L247.45,204.01L254.62,203.24L258.21,203.68L272.55,205.15L276.14,205.2L294.07,203.87L297.66,204.32L308.41,205.68L312,205.77L329.93,204.99L333.52,205.56L347.86,207.55L351.45,207.63L362.21,208.24L365.79,208.75L383.72,210.43L387.31,210.56L433.93,211L437.52,210.99L520,210.73" style="vector-effect: none; fill: none; stroke: rgb(43, 144, 143); stroke-opacity: 1; stroke-width: 2px; opacity: 1;"/></g><g class="points"/><g class="text"/></g><g class="trace scatter trace0ab4c2" style="stroke-miterlimit: 2; opacity: 1;"><g class="fills"/><g class="errorbars"/><g class="lines"><path class="js-line" d="M0,207.02L17.93,207L21.52,206.64L60.97,205.9L64.55,205.48L82.48,205.94L86.07,205.94L96.83,205.09L100.41,204.63L114.76,205.03L118.34,205.12L129.1,204.69L132.69,204.17L136.28,203.47L139.86,199.23L143.45,199.92L147.03,193.66L150.62,206.82L154.21,171.77L157.79,187.58L161.38,171.16L164.97,199.29L168.55,194.8L172.14,204.86L175.72,208.36L179.31,210.46L182.9,210.25L186.48,210.49L190.07,209.26L193.66,205.23L197.24,208.42L200.83,206.07L204.41,207.37L208,209.13L211.59,206.97L215.17,202.36L218.76,202.94L222.34,209.64L225.93,210.71L243.86,209.78L247.45,206.83L251.03,203.61L254.62,202L261.79,202.81L265.38,203.66L272.55,204.53L276.14,204.53L290.48,201.27L294.07,201.72L308.41,205.28L312,205.48L322.76,204.22L326.34,203.77L333.52,205.12L337.1,206.23L344.28,207.95L347.86,208.31L376.55,210.31L380.14,210.58L405.24,210.97L408.83,210.98L520,210.75" style="vector-effect: none; fill: none; stroke: rgb(244, 91, 91); stroke-opacity: 1; stroke-width: 2px; opacity: 1;"/></g><g class="points"/><g class="text"/></g><g class="trace scatter trace03d4da" style="stroke-miterlimit: 2; opacity: 1;"><g class="fills"/><g class="errorbars"/><g class="lines"><path class="js-line" d="M0,207.02L17.93,206.97L21.52,206.67L39.45,206.4L43.03,206.6L57.38,206.1L60.97,205.87L71.72,205.48L75.31,205.63L93.24,205.6L96.83,205.14L107.59,204.53L111.17,204.73L125.52,205.44L129.1,205.04L143.45,203.43L147.03,203.69L161.38,204.69L164.97,204.67L168.55,204.16L172.14,202.78L175.72,203.72L179.31,202.61L186.48,203.22L190.07,203.82L200.83,204.34L204.41,203.85L215.17,201.03L218.76,200.91L222.34,199.52L225.93,207.38L229.52,204.01L233.1,204.32L240.28,203.98L243.86,203.23L254.62,200.89L258.21,201.52L268.97,204.1L272.55,204.32L279.72,203.7L283.31,202.88L290.48,200.96L294.07,201.49L308.41,205.16L312,205.36L322.76,204.11L326.34,203.65L333.52,205.01L337.1,206.15L344.28,207.91L347.86,208.27L372.97,210.03L376.55,210.31L394.48,210.92L398.07,210.95L520,210.75" style="vector-effect: none; fill: none; stroke: rgb(145, 232, 225); stroke-opacity: 1; stroke-width: 2px; opacity: 1;"/></g><g class="points"/><g class="text"/></g><g class="trace scatter traceb3014c" style="stroke-miterlimit: 2; opacity: 1;"><g class="fills"/><g class="errorbars"/><g class="lines"><path class="js-line" d="M0,208.33L17.93,208.1L21.52,207.88L35.86,208.01L39.45,208.07L50.21,208.44L53.79,208.35L64.55,207.5L68.14,207.44L89.66,208.19L93.24,207.71L111.17,206.78L114.76,207.28L125.52,207.77L129.1,207.41L136.28,206.24L139.86,203.18L143.45,204.84L147.03,202.25L150.62,208.44L154.21,200.2L157.79,199.21L161.38,207.76L164.97,203.61L168.55,206.19L172.14,207.55L175.72,203.09L179.31,209.71L182.9,204.81L186.48,207.1L190.07,207.48L193.66,203.08L197.24,207.24L200.83,202.42L204.41,210.19L208,207.6L211.59,206.07L215.17,195.83L218.76,209.86L222.34,210.13L225.93,207.12L233.1,206.43L236.69,207.07L240.28,209.06L243.86,209.15L247.45,205.71L251.03,203.64L254.62,202.51L258.21,203.1L268.97,206.19L272.55,206.31L276.14,206.27L279.72,205.4L290.48,200.74L294.07,201.42L304.83,206.04L308.41,206.62L315.59,206.24L319.17,205.06L326.34,202.72L329.93,202.98L344.28,208.39L347.86,208.81L365.79,208.81L369.38,209.31L383.72,210.73L387.31,210.79L469.79,211L473.38,210.99L520,210.89" style="vector-effect: none; fill: none; stroke: rgb(124, 181, 236); stroke-opacity: 1; stroke-width: 2px; opacity: 1;"/></g><g class="points"/><g class="text"/></g><g class="trace scatter trace96bc14" style="stroke-miterlimit: 2; opacity: 1;"><g class="fills"/><g class="errorbars"/><g class="lines"><path class="js-line" d="M0,208.33L17.93,208.09L21.52,207.9L50.21,208.44L53.79,208.35L68.14,207.42L71.72,207.49L93.24,207.75L96.83,207.5L107.59,206.85L111.17,206.91L121.93,207.88L125.52,207.92L143.45,205.92L147.03,205.97L157.79,207.4L161.38,207.43L168.55,206.79L172.14,205.68L175.72,205.8L179.31,205.02L182.9,204.82L186.48,205.63L197.24,207.09L200.83,206.75L204.41,206.49L208,205.37L218.76,202.79L222.34,202.34L225.93,208.46L229.52,206.19L233.1,206.69L236.69,206.42L240.28,206.25L243.86,205.27L254.62,201.82L258.21,202.72L268.97,206.07L272.55,206.18L276.14,206.17L279.72,205.31L290.48,200.57L294.07,201.32L304.83,205.98L308.41,206.56L315.59,206.19L319.17,205L326.34,202.65L329.93,202.9L344.28,208.37L347.86,208.79L365.79,208.8L369.38,209.3L383.72,210.73L387.31,210.79L469.79,211L473.38,210.99L520,210.89" style="vector-effect: none; fill: none; stroke: rgb(67, 67, 72); stroke-opacity: 1; stroke-width: 2px; opacity: 1;"/></g><g class="points"/><g class="text"/></g><g class="trace scatter trace351a8f" style="stroke-miterlimit: 2; opacity: 1;"><g class="fills"/><g class="errorbars"/><g class="lines"><path class="js-line" d="M0,208.22L28.69,207.52L32.28,207.59L53.79,207.51L57.38,206.8L64.55,206.7L68.14,206.63L89.66,206.9L93.24,206.21L111.17,205.52L114.76,206.18L125.52,206.38L129.1,205.13L136.28,204.31L139.86,199.38L143.45,200.68L147.03,194.24L150.62,206.45L154.21,154.85L157.79,187.37L161.38,191.78L164.97,200.7L168.55,202.92L172.14,207.25L175.72,207.48L179.31,210.72L182.9,209.6L186.48,210.33L190.07,209.32L193.66,205L197.24,209.26L200.83,207.21L204.41,208.31L208,209.55L211.59,207.1L215.17,202.07L218.76,202.62L222.34,210.09L225.93,210.68L236.69,208.64L240.28,209.46L243.86,209.9L247.45,206.26L251.03,202.55L254.62,200.44L268.97,205.14L272.55,204.73L276.14,204.96L279.72,204.04L290.48,198.32L294.07,200.02L301.24,204.25L304.83,205.57L315.59,205.7L319.17,204.54L326.34,201.99L329.93,202.58L340.69,207.67L344.28,208.39L351.45,208.92L355.03,208.81L369.38,209.67L372.97,210.09L387.31,210.87L390.9,210.9L466.21,211L469.79,211L520,210.99" style="vector-effect: none; fill: none; stroke: rgb(144, 237, 125); stroke-opacity: 1; stroke-width: 2px; opacity: 1;"/></g><g class="points"/><g class="text"/></g><g class="trace scatter trace7c80d2" style="stroke-miterlimit: 2; opacity: 1;"><g class="fills"/><g class="errorbars"/><g class="lines"><path class="js-line" d="M0,208.22L25.1,207.7L28.69,207.57L53.79,207.51L57.38,206.95L89.66,206.97L93.24,206.37L111.17,205.62L114.76,206.23L125.52,206.46L129.1,205.59L143.45,204.39L147.03,204.23L154.21,205.56L157.79,205.69L168.55,204.85L172.14,203.43L175.72,203.94L179.31,203.02L182.9,202.87L186.48,203.98L193.66,205.01L197.24,205.32L208,203.05L211.59,201.84L218.76,200.25L222.34,200.25L225.93,207.75L229.52,204.76L233.1,205.08L236.69,204.34L240.28,204.42L243.86,203.17L251.03,200.4L254.62,199.14L261.79,202.71L265.38,203.9L268.97,204.95L272.55,204.51L276.14,204.77L279.72,203.86L290.48,197.91L294.07,199.74L301.24,204.09L304.83,205.45L315.59,205.6L319.17,204.43L326.34,201.84L329.93,202.42L340.69,207.61L344.28,208.35L351.45,208.89L355.03,208.77L369.38,209.65L372.97,210.08L387.31,210.87L390.9,210.9L466.21,211L469.79,211L520,211" style="vector-effect: none; fill: none; stroke: rgb(247, 163, 92); stroke-opacity: 1; stroke-width: 2px; opacity: 1;"/></g><g class="points"/><g class="text"/></g><g class="trace scatter traced7baba" style="stroke-miterlimit: 2; opacity: 1;"><g class="fills"/><g class="errorbars"/><g class="lines"><path class="js-line" d="M0,208.46L14.34,208.38L17.93,208.23L32.28,207.86L35.86,207.86L50.21,208.54L53.79,208.3L60.97,207.47L64.55,207.05L75.31,207.08L78.9,207.45L82.48,207.44L86.07,208.48L104,205.96L107.59,206.03L114.76,206.86L118.34,207.32L125.52,207.34L129.1,206.98L136.28,205.25L139.86,201.02L143.45,203.24L147.03,200.18L150.62,207.55L154.21,198.23L157.79,196.91L161.38,207.25L164.97,202.33L168.55,206.2L172.14,206.74L175.72,200.14L179.31,209.32L182.9,203.09L190.07,206.98L193.66,202.71L197.24,205.59L200.83,201.92L204.41,209.98L208,206.25L211.59,204.86L215.17,192.22L218.76,209.35L222.34,209.31L225.93,205.8L229.52,205.69L233.1,205.35L236.69,205.88L240.28,208.36L243.86,208.62L247.45,204.17L251.03,201.15L254.62,199.28L258.21,200.15L268.97,205.35L272.55,205.49L276.14,205.54L279.72,204.07L290.48,196.09L294.07,197.27L304.83,204.74L308.41,205.72L312,206.01L315.59,205.11L326.34,198.48L329.93,198.47L344.28,207.5L347.86,208.06L355.03,207.15L358.62,206.73L365.79,207.11L369.38,207.92L383.72,210.49L387.31,210.6L476.97,211L480.55,211L520,210.92" style="vector-effect: none; fill: none; stroke: rgb(128, 133, 233); stroke-opacity: 1; stroke-width: 2px; opacity: 1;"/></g><g class="points"/><g class="text"/></g><g class="trace scatter traceb53d8b" style="stroke-miterlimit: 2; opacity: 1;"><g class="fills"/><g class="errorbars"/><g class="lines"><path class="js-line" d="M0,208.47L14.34,208.43L17.93,208.21L35.86,207.94L39.45,208.11L50.21,208.55L53.79,208.3L68.14,206.92L71.72,207.04L89.66,208.05L93.24,207.45L107.59,206.05L111.17,206.21L121.93,207.57L125.52,207.58L143.45,204.43L147.03,204.63L154.21,206.5L157.79,206.97L164.97,206.53L168.55,206.02L172.14,204.61L175.72,204.16L182.9,202.84L186.48,204.18L197.24,206.64L200.83,206.21L204.41,205.7L208,204.03L215.17,200.76L218.76,200.05L222.34,199.61L225.93,207.77L229.52,205.26L233.1,206.13L240.28,205.43L243.86,203.91L254.62,198.2L258.21,199.58L268.97,205.2L272.55,205.32L276.14,205.41L279.72,203.95L290.48,195.82L294.07,197.1L304.83,204.64L308.41,205.64L312,205.93L315.59,205.05L326.34,198.35L329.93,198.32L344.28,207.46L347.86,208.03L355.03,207.11L358.62,206.69L365.79,207.08L369.38,207.9L383.72,210.48L387.31,210.6L476.97,211L480.55,211L520,210.92" style="vector-effect: none; fill: none; stroke: rgb(241, 92, 128); stroke-opacity: 1; stroke-width: 2px; opacity: 1;"/></g><g class="points"/><g class="text"/></g><g class="trace scatter trace87b07b" style="stroke-miterlimit: 2; opacity: 1;"><g class="fills"/><g class="errorbars"/><g class="lines"><path class="js-line" d="M0,208.38L28.69,207.65L32.28,207.79L53.79,208.2L57.38,207.23L64.55,207.1L68.14,207.1L86.07,207.93L89.66,208.01L93.24,206.93L96.83,206.96L104,206.26L107.59,206.46L111.17,205.92L114.76,207.11L125.52,207.72L129.1,206.38L136.28,205.61L139.86,201.49L143.45,204.19L147.03,200.48L150.62,208.56L154.21,201.21L157.79,195.87L161.38,206.97L164.97,201.14L168.55,205.61L172.14,206.89L175.72,200.29L179.31,209.76L182.9,202.54L186.48,206.57L190.07,207.41L193.66,201.12L197.24,206.24L200.83,200.35L204.41,210.01L208,206.86L211.59,205.36L215.17,193.2L218.76,209.53L222.34,210.03L225.93,206.64L236.69,205.56L240.28,208.7L243.86,208.89L247.45,204.23L251.03,202L254.62,198.53L258.21,201.29L261.79,202.95L268.97,206.2L272.55,204.87L276.14,206.16L279.72,204.71L290.48,196.68L294.07,198.91L304.83,205.99L308.41,206.45L312,207.02L315.59,206.23L326.34,199.83L329.93,199.96L344.28,208.3L347.86,208.93L355.03,208.08L358.62,207.55L365.79,207.72L369.38,208.42L383.72,210.69L387.31,210.76L516.41,211L520,210.73" style="vector-effect: none; fill: none; stroke: rgb(228, 211, 84); stroke-opacity: 1; stroke-width: 2px; opacity: 1;"/></g><g class="points"/><g class="text"/></g><g class="trace scatter traceb67836" style="stroke-miterlimit: 2; opacity: 1;"><g class="fills"/><g class="errorbars"/><g class="lines"><path class="js-line" d="M0,208.39L21.52,207.22L25.1,207.75L39.45,207.85L43.03,208.38L53.79,208.19L57.38,207.37L75.31,206.99L78.9,207.83L86.07,208.09L89.66,208.05L93.24,207.02L96.83,207.04L104,206.2L107.59,206.55L111.17,206.05L114.76,207.16L121.93,207.58L125.52,207.8L129.1,206.47L132.69,206.62L139.86,205.3L143.45,205.3L147.03,204.52L150.62,206.25L157.79,207L161.38,207.36L164.97,205.83L168.55,206.22L172.14,204.96L175.72,204.51L179.31,204.24L182.9,202.49L186.48,204.98L190.07,205.88L197.24,207.02L200.83,205.08L204.41,205.76L208,204.37L211.59,202.52L215.17,201.84L218.76,199.59L222.34,200.89L225.93,208.11L229.52,205.36L233.1,206.59L236.69,204.47L240.28,205.69L243.86,204.24L247.45,201.91L251.03,201.02L254.62,197.46L258.21,200.82L268.97,206.09L272.55,204.68L276.14,206.05L279.72,204.62L290.48,196.44L294.07,198.78L304.83,205.92L308.41,206.38L312,206.96L315.59,206.19L326.34,199.73L329.93,199.84L344.28,208.28L347.86,208.91L355.03,208.06L358.62,207.52L365.79,207.7L369.38,208.41L383.72,210.69L387.31,210.76L516.41,211L520,210.73" style="vector-effect: none; fill: none; stroke: rgb(43, 144, 143); stroke-opacity: 1; stroke-width: 2px; opacity: 1;"/></g><g class="points"/><g class="text"/></g><g class="trace scatter traceb2ac47" style="stroke-miterlimit: 2; opacity: 1;"><g class="fills"/><g class="errorbars"/><g class="lines"><path class="js-line" d="M0,208.75L21.52,207.55L25.1,208.3L39.45,208.14L43.03,208.65L53.79,208.54L57.38,207.67L64.55,207.68L68.14,207.59L86.07,208.16L89.66,208.32L93.24,207.28L96.83,207.51L100.41,206.87L104,207L107.59,207.09L111.17,206.36L114.76,207.48L118.34,207.81L125.52,207.95L129.1,206.64L136.28,206.16L139.86,201.33L143.45,204.46L147.03,200.37L150.62,208.48L154.21,192.95L157.79,174.7L161.38,205.13L164.97,200.22L168.55,205.91L172.14,208.18L175.72,203.72L179.31,210.73L182.9,206.04L186.48,209.36L190.07,208.77L193.66,202.28L197.24,209.25L200.83,205.43L204.41,209.39L208,209.43L211.59,207.4L215.17,202.67L218.76,206.3L222.34,210.73L225.93,209.55L229.52,207.99L233.1,207.99L236.69,207.46L240.28,209.38L243.86,209.88L247.45,205.55L251.03,203.22L254.62,198.78L258.21,201.92L261.79,203.05L265.38,204L268.97,205.87L272.55,203.48L276.14,205.76L279.72,204.46L283.31,201.88L286.9,200.58L290.48,195.47L294.07,199.15L297.66,201.05L304.83,205.48L308.41,204.59L312,206.39L315.59,205.68L326.34,199.31L329.93,200.06L344.28,207.72L347.86,208.39L355.03,207.67L358.62,207.24L362.21,206.99L365.79,207.5L383.72,210.6L387.31,210.7L473.38,211L476.97,211L520,210.9" style="vector-effect: none; fill: none; stroke: rgb(244, 91, 91); stroke-opacity: 1; stroke-width: 2px; opacity: 1;"/></g><g class="points"/><g class="text"/></g><g class="trace scatter trace89a80c" style="stroke-miterlimit: 2; opacity: 1;"><g class="fills"/><g class="errorbars"/><g class="lines"><path class="js-line" d="M0,208.76L21.52,207.58L25.1,208.28L39.45,208.14L43.03,208.65L53.79,208.53L57.38,207.79L64.55,207.69L68.14,207.56L89.66,208.37L93.24,207.37L100.41,207.21L104,206.8L107.59,207.08L111.17,206.45L118.34,207.84L121.93,207.8L125.52,208.04L129.1,206.78L132.69,207.13L136.28,206.43L147.03,205.08L150.62,206.62L161.38,207.55L164.97,206.21L168.55,206.69L172.14,205.46L179.31,205.11L182.9,203.22L186.48,205.5L190.07,206.22L197.24,207.16L200.83,205.33L204.41,206.17L208,205.07L211.59,203.46L215.17,202.85L218.76,200.37L222.34,201.73L225.93,208.19L229.52,205.51L233.1,206.64L236.69,204.32L240.28,205.92L243.86,204.62L247.45,202.58L251.03,201.95L254.62,197.63L258.21,201.43L268.97,205.77L272.55,203.23L276.14,205.63L279.72,204.34L283.31,201.69L286.9,200.37L290.48,195.11L294.07,198.98L304.83,205.4L308.41,204.48L312,206.31L315.59,205.62L326.34,199.17L329.93,199.91L344.28,207.68L347.86,208.36L355.03,207.64L358.62,207.21L362.21,206.95L365.79,207.47L383.72,210.6L387.31,210.69L459.03,211L462.62,210.99L520,210.9" style="vector-effect: none; fill: none; stroke: rgb(145, 232, 225); stroke-opacity: 1; stroke-width: 2px; opacity: 1;"/></g><g class="points"/><g class="text"/></g><g class="trace scatter trace3c8f1d" style="stroke-miterlimit: 2; opacity: 1;"><g class="fills"/><g class="errorbars"/><g class="lines"><path class="js-line" d="M0,208.86L21.52,207.75L25.1,208.35L39.45,208.29L43.03,208.75L53.79,208.57L57.38,207.71L64.55,207.63L68.14,207.58L86.07,208.17L89.66,208.26L93.24,207.19L96.83,207.23L104,206.58L107.59,206.84L111.17,206.21L114.76,207.32L121.93,207.48L125.52,207.69L129.1,206.29L132.69,205.96L136.28,205.51L139.86,200.1L143.45,202.53L147.03,199.34L150.62,205.78L154.21,167.18L157.79,184.71L161.38,189.06L164.97,200.68L168.55,198.31L172.14,205.01L175.72,207.59L179.31,210.59L182.9,208.83L186.48,210.34L190.07,209.05L193.66,204.58L197.24,209.53L200.83,205.98L204.41,208.61L208,209.66L211.59,205.98L215.17,201.2L218.76,201.58L222.34,210.16L225.93,210.71L236.69,208.6L240.28,209.72L243.86,209.6L247.45,204.81L251.03,200.65L254.62,194.3L258.21,198.26L261.79,199.9L265.38,201.36L268.97,203.98L272.55,200.51L276.14,203.4L279.72,200.95L283.31,196.52L286.9,193.82L290.48,184.6L294.07,190.76L297.66,193.43L304.83,201.06L308.41,197.27L312,202.02L315.59,199.81L319.17,194.59L322.76,191.33L326.34,181.27L329.93,186.08L333.52,189.66L337.1,194.29L340.69,200.03L344.28,200.98L347.86,204.09L351.45,203.31L355.03,200.68L358.62,199.34L362.21,197.52L365.79,199.06L383.72,209.14L387.31,209.48L398.07,210.27L401.66,210.44L433.93,210.98L437.52,210.99L516.41,210.99L520,209.67" style="vector-effect: none; fill: none; stroke: rgb(124, 181, 236); stroke-opacity: 1; stroke-width: 2px; opacity: 1;"/></g><g class="points"/><g class="text"/></g><g class="trace scatter tracea2330e" style="stroke-miterlimit: 2; opacity: 1;"><g class="fills"/><g class="errorbars"/><g class="lines"><path class="js-line" d="M0,208.87L21.52,207.77L25.1,208.33L39.45,208.3L43.03,208.76L53.79,208.58L57.38,207.85L71.72,207.77L75.31,207.4L82.48,208.44L86.07,208.36L89.66,208.36L93.24,207.33L100.41,206.99L104,206.58L107.59,206.89L111.17,206.33L118.34,207.77L121.93,207.72L125.52,207.92L129.1,206.57L132.69,206.78L136.28,206.06L147.03,204.45L150.62,206.25L157.79,206.91L161.38,207.16L164.97,205.63L168.55,206.09L172.14,204.54L175.72,204.59L179.31,203.97L182.9,201.88L186.48,204.55L190.07,205.47L197.24,206.59L200.83,204.37L204.41,205.13L208,203.59L211.59,201.43L215.17,200.62L218.76,197.7L222.34,199.3L225.93,207.45L229.52,204.2L233.1,205.64L236.69,202.75L240.28,204.45L243.86,202.53L247.45,199.59L251.03,198.38L254.62,192.57L258.21,197.47L265.38,201L268.97,203.81L272.55,200.14L276.14,203.22L279.72,200.76L283.31,196.22L286.9,193.47L290.48,183.78L294.07,190.33L297.66,193.03L304.83,200.9L308.41,196.93L312,201.85L315.59,199.63L319.17,194.34L322.76,191.04L326.34,180.8L329.93,185.64L333.52,189.29L337.1,194.01L340.69,199.87L344.28,200.83L347.86,204L351.45,203.21L355.03,200.54L358.62,199.19L362.21,197.35L365.79,198.92L383.72,209.12L387.31,209.47L398.07,210.27L401.66,210.43L430.34,210.99L433.93,210.98L516.41,210.99L520,209.67" style="vector-effect: none; fill: none; stroke: rgb(67, 67, 72); stroke-opacity: 1; stroke-width: 2px; opacity: 1;"/></g><g class="points"/><g class="text"/></g></g></g></g><g class="zerolinelayer-above"/><path class="xlines-above crisp" d="M0,0" style="fill: none;"/><path class="ylines-above crisp" d="M0,0" style="fill: none;"/><g class="overlines-above"/><g class="xaxislayer-above"><g class="xtick"><text text-anchor="middle" x="0" y="277" transform="translate(113.78999999999999,0)" style="font-family: 'Lucida Grande', 'Open Sans', verdana, arial, sans-serif; font-size: 10px; fill: rgb(0, 0, 0); fill-opacity: 1; white-space: pre;">20 bp</text></g><g class="xtick"><text text-anchor="middle" x="0" y="277" style="font-family: 'Lucida Grande', 'Open Sans', verdana, arial, sans-serif; font-size: 10px; fill: rgb(0, 0, 0); fill-opacity: 1; white-space: pre;" transform="translate(185.51999999999998,0)">40 bp</text></g><g class="xtick"><text text-anchor="middle" x="0" y="277" style="font-family: 'Lucida Grande', 'Open Sans', verdana, arial, sans-serif; font-size: 10px; fill: rgb(0, 0, 0); fill-opacity: 1; white-space: pre;" transform="translate(257.24,0)">60 bp</text></g><g class="xtick"><text text-anchor="middle" x="0" y="277" style="font-family: 'Lucida Grande', 'Open Sans', verdana, arial, sans-serif; font-size: 10px; fill: rgb(0, 0, 0); fill-opacity: 1; white-space: pre;" transform="translate(328.97,0)">80 bp</text></g><g class="xtick"><text text-anchor="middle" x="0" y="277" style="font-family: 'Lucida Grande', 'Open Sans', verdana, arial, sans-serif; font-size: 10px; fill: rgb(0, 0, 0); fill-opacity: 1; white-space: pre;" transform="translate(400.69,0)">100 bp</text></g><g class="xtick"><text text-anchor="middle" x="0" y="277" style="font-family: 'Lucida Grande', 'Open Sans', verdana, arial, sans-serif; font-size: 10px; fill: rgb(0, 0, 0); fill-opacity: 1; white-space: pre;" transform="translate(472.41,0)">120 bp</text></g><g class="xtick"><text text-anchor="middle" x="0" y="277" style="font-family: 'Lucida Grande', 'Open Sans', verdana, arial, sans-serif; font-size: 10px; fill: rgb(0, 0, 0); fill-opacity: 1; white-space: pre;" transform="translate(544.14,0)">140 bp</text></g></g><g class="yaxislayer-above"><g class="ytick"><text text-anchor="end" x="54" y="3.5" transform="translate(0,261)" style="font-family: 'Lucida Grande', 'Open Sans', verdana, arial, sans-serif; font-size: 10px; fill: rgb(0, 0, 0); fill-opacity: 1; white-space: pre;">0</text></g><g class="ytick"><text text-anchor="end" x="54" y="3.5" style="font-family: 'Lucida Grande', 'Open Sans', verdana, arial, sans-serif; font-size: 10px; fill: rgb(0, 0, 0); fill-opacity: 1; white-space: pre;" transform="translate(0,204.48)">5M</text></g><g class="ytick"><text text-anchor="end" x="54" y="3.5" style="font-family: 'Lucida Grande', 'Open Sans', verdana, arial, sans-serif; font-size: 10px; fill: rgb(0, 0, 0); fill-opacity: 1; white-space: pre;" transform="translate(0,147.95999999999998)">10M</text></g><g class="ytick"><text text-anchor="end" x="54" y="3.5" style="font-family: 'Lucida Grande', 'Open Sans', verdana, arial, sans-serif; font-size: 10px; fill: rgb(0, 0, 0); fill-opacity: 1; white-space: pre;" transform="translate(0,91.43)">15M</text></g></g><g class="overaxes-above"/></g></g><g class="polarlayer"/><g class="smithlayer"/><g class="ternarylayer"/><g class="geolayer"/><g class="funnelarealayer"/><g class="pielayer"/><g class="iciclelayer"/><g class="treemaplayer"/><g class="sunburstlayer"/><g class="glimages"/><defs id="topdefs-b9ed1d"><g class="clips"/><clipPath id="legendb9ed1d"><rect width="765" height="305" x="0" y="0"/></clipPath></defs><g class="layer-above"><g class="imagelayer"/><g class="shapelayer"/></g><g class="infolayer"><g class="legend" pointer-events="all" transform="translate(-62.5,292.65)"><rect class="bg" shape-rendering="crispEdges" style="stroke: rgb(68, 68, 68); stroke-opacity: 1; fill: rgb(255, 255, 255); fill-opacity: 1; stroke-width: 0px;" width="765" height="305" x="0" y="0"/><g class="scrollbox" transform="" clip-path="url(#legendb9ed1d)"><g class="groups"><g class="traces" transform="translate(0,14.5)" style="opacity: 1;"><text class="legendtext" text-anchor="start" x="40" y="4.680000000000001" style="font-family: 'Lucida Grande', 'Open Sans', verdana, arial, sans-serif; font-size: 12px; fill: rgb(68, 68, 68); fill-opacity: 1; white-space: pre;">/ | beegfs | scratch | ric.sessa | kubacki.michal | SRF_Eva | results | 02_trimmed | IggMs_R1_001.fastq.gz - Adapter 1</text><g class="layers" style="opacity: 1;"><g class="legendfill"/><g class="legendlines"><path class="js-line" d="M5,0h30" style="fill: none; stroke: rgb(124, 181, 236); stroke-opacity: 1; stroke-width: 2px;"/></g><g class="legendsymbols"><g class="legendpoints"/></g></g><rect class="legendtoggle" x="0" y="-9.5" width="739.0625" height="19" style="fill: rgb(0, 0, 0); fill-opacity: 0;"/></g><g class="traces" transform="translate(0,33.5)" style="opacity: 1;"><text class="legendtext" text-anchor="start" x="40" y="4.680000000000001" style="font-family: 'Lucida Grande', 'Open Sans', verdana, arial, sans-serif; font-size: 12px; fill: rgb(68, 68, 68); fill-opacity: 1; white-space: pre;">/ | beegfs | scratch | ric.sessa | kubacki.michal | SRF_Eva | results | 02_trimmed | IggMs_R2_001.fastq.gz - Adapter 1</text><g class="layers" style="opacity: 1;"><g class="legendfill"/><g class="legendlines"><path class="js-line" d="M5,0h30" style="fill: none; stroke: rgb(67, 67, 72); stroke-opacity: 1; stroke-width: 2px;"/></g><g class="legendsymbols"><g class="legendpoints"/></g></g><rect class="legendtoggle" x="0" y="-9.5" width="739.0625" height="19" style="fill: rgb(0, 0, 0); fill-opacity: 0;"/></g><g class="traces" transform="translate(0,52.5)" style="opacity: 1;"><text class="legendtext" text-anchor="start" x="40" y="4.680000000000001" style="font-family: 'Lucida Grande', 'Open Sans', verdana, arial, sans-serif; font-size: 12px; fill: rgb(68, 68, 68); fill-opacity: 1; white-space: pre;">/ | beegfs | scratch | ric.sessa | kubacki.michal | SRF_Eva | results | 02_trimmed | IggRb_R1_001.fastq.gz - Adapter 1</text><g class="layers" style="opacity: 1;"><g class="legendfill"/><g class="legendlines"><path class="js-line" d="M5,0h30" style="fill: none; stroke: rgb(144, 237, 125); stroke-opacity: 1; stroke-width: 2px;"/></g><g class="legendsymbols"><g class="legendpoints"/></g></g><rect class="legendtoggle" x="0" y="-9.5" width="738.421875" height="19" style="fill: rgb(0, 0, 0); fill-opacity: 0;"/></g><g class="traces" transform="translate(0,71.5)" style="opacity: 1;"><text class="legendtext" text-anchor="start" x="40" y="4.680000000000001" style="font-family: 'Lucida Grande', 'Open Sans', verdana, arial, sans-serif; font-size: 12px; fill: rgb(68, 68, 68); fill-opacity: 1; white-space: pre;">/ | beegfs | scratch | ric.sessa | kubacki.michal | SRF_Eva | results | 02_trimmed | IggRb_R2_001.fastq.gz - Adapter 1</text><g class="layers" style="opacity: 1;"><g class="legendfill"/><g class="legendlines"><path class="js-line" d="M5,0h30" style="fill: none; stroke: rgb(247, 163, 92); stroke-opacity: 1; stroke-width: 2px;"/></g><g class="legendsymbols"><g class="legendpoints"/></g></g><rect class="legendtoggle" x="0" y="-9.5" width="738.421875" height="19" style="fill: rgb(0, 0, 0); fill-opacity: 0;"/></g><g class="traces" transform="translate(0,90.5)" style="opacity: 1;"><text class="legendtext" text-anchor="start" x="40" y="4.680000000000001" style="font-family: 'Lucida Grande', 'Open Sans', verdana, arial, sans-serif; font-size: 12px; fill: rgb(68, 68, 68); fill-opacity: 1; white-space: pre;">/ | beegfs | scratch | ric.sessa | kubacki.michal | SRF_Eva | results | 02_trimmed | TEAD1-1_R1_001.fastq.gz - Adapter 1</text><g class="layers" style="opacity: 1;"><g class="legendfill"/><g class="legendlines"><path class="js-line" d="M5,0h30" style="fill: none; stroke: rgb(128, 133, 233); stroke-opacity: 1; stroke-width: 2px;"/></g><g class="legendsymbols"><g class="legendpoints"/></g></g><rect class="legendtoggle" x="0" y="-9.5" width="755.65625" height="19" style="fill: rgb(0, 0, 0); fill-opacity: 0;"/></g><g class="traces" transform="translate(0,109.5)" style="opacity: 1;"><text class="legendtext" text-anchor="start" x="40" y="4.680000000000001" style="font-family: 'Lucida Grande', 'Open Sans', verdana, arial, sans-serif; font-size: 12px; fill: rgb(68, 68, 68); fill-opacity: 1; white-space: pre;">/ | beegfs | scratch | ric.sessa | kubacki.michal | SRF_Eva | results | 02_trimmed | TEAD1-1_R2_001.fastq.gz - Adapter 1</text><g class="layers" style="opacity: 1;"><g class="legendfill"/><g class="legendlines"><path class="js-line" d="M5,0h30" style="fill: none; stroke: rgb(241, 92, 128); stroke-opacity: 1; stroke-width: 2px;"/></g><g class="legendsymbols"><g class="legendpoints"/></g></g><rect class="legendtoggle" x="0" y="-9.5" width="755.65625" height="19" style="fill: rgb(0, 0, 0); fill-opacity: 0;"/></g><g class="traces" transform="translate(0,128.5)" style="opacity: 1;"><text class="legendtext" text-anchor="start" x="40" y="4.680000000000001" style="font-family: 'Lucida Grande', 'Open Sans', verdana, arial, sans-serif; font-size: 12px; fill: rgb(68, 68, 68); fill-opacity: 1; white-space: pre;">/ | beegfs | scratch | ric.sessa | kubacki.michal | SRF_Eva | results | 02_trimmed | TEAD1-2_R1_001.fastq.gz - Adapter 1</text><g class="layers" style="opacity: 1;"><g class="legendfill"/><g class="legendlines"><path class="js-line" d="M5,0h30" style="fill: none; stroke: rgb(228, 211, 84); stroke-opacity: 1; stroke-width: 2px;"/></g><g class="legendsymbols"><g class="legendpoints"/></g></g><rect class="legendtoggle" x="0" y="-9.5" width="755.65625" height="19" style="fill: rgb(0, 0, 0); fill-opacity: 0;"/></g><g class="traces" transform="translate(0,147.5)" style="opacity: 1;"><text class="legendtext" text-anchor="start" x="40" y="4.680000000000001" style="font-family: 'Lucida Grande', 'Open Sans', verdana, arial, sans-serif; font-size: 12px; fill: rgb(68, 68, 68); fill-opacity: 1; white-space: pre;">/ | beegfs | scratch | ric.sessa | kubacki.michal | SRF_Eva | results | 02_trimmed | TEAD1-2_R2_001.fastq.gz - Adapter 1</text><g class="layers" style="opacity: 1;"><g class="legendfill"/><g class="legendlines"><path class="js-line" d="M5,0h30" style="fill: none; stroke: rgb(43, 144, 143); stroke-opacity: 1; stroke-width: 2px;"/></g><g class="legendsymbols"><g class="legendpoints"/></g></g><rect class="legendtoggle" x="0" y="-9.5" width="755.65625" height="19" style="fill: rgb(0, 0, 0); fill-opacity: 0;"/></g><g class="traces" transform="translate(0,166.5)" style="opacity: 1;"><text class="legendtext" text-anchor="start" x="40" y="4.680000000000001" style="font-family: 'Lucida Grande', 'Open Sans', verdana, arial, sans-serif; font-size: 12px; fill: rgb(68, 68, 68); fill-opacity: 1; white-space: pre;">/ | beegfs | scratch | ric.sessa | kubacki.michal | SRF_Eva | results | 02_trimmed | TEAD1-3_R1_001.fastq.gz - Adapter 1</text><g class="layers" style="opacity: 1;"><g class="legendfill"/><g class="legendlines"><path class="js-line" d="M5,0h30" style="fill: none; stroke: rgb(244, 91, 91); stroke-opacity: 1; stroke-width: 2px;"/></g><g class="legendsymbols"><g class="legendpoints"/></g></g><rect class="legendtoggle" x="0" y="-9.5" width="755.65625" height="19" style="fill: rgb(0, 0, 0); fill-opacity: 0;"/></g><g class="traces" transform="translate(0,185.5)" style="opacity: 1;"><text class="legendtext" text-anchor="start" x="40" y="4.680000000000001" style="font-family: 'Lucida Grande', 'Open Sans', verdana, arial, sans-serif; font-size: 12px; fill: rgb(68, 68, 68); fill-opacity: 1; white-space: pre;">/ | beegfs | scratch | ric.sessa | kubacki.michal | SRF_Eva | results | 02_trimmed | TEAD1-3_R2_001.fastq.gz - Adapter 1</text><g class="layers" style="opacity: 1;"><g class="legendfill"/><g class="legendlines"><path class="js-line" d="M5,0h30" style="fill: none; stroke: rgb(145, 232, 225); stroke-opacity: 1; stroke-width: 2px;"/></g><g class="legendsymbols"><g class="legendpoints"/></g></g><rect class="legendtoggle" x="0" y="-9.5" width="755.65625" height="19" style="fill: rgb(0, 0, 0); fill-opacity: 0;"/></g><g class="traces" transform="translate(0,204.5)" style="opacity: 1;"><text class="legendtext" text-anchor="start" x="40" y="4.680000000000001" style="font-family: 'Lucida Grande', 'Open Sans', verdana, arial, sans-serif; font-size: 12px; fill: rgb(68, 68, 68); fill-opacity: 1; white-space: pre;">/ | beegfs | scratch | ric.sessa | kubacki.michal | SRF_Eva | results | 02_trimmed | TES-1_R1_001.fastq.gz - Adapter 1</text><g class="layers" style="opacity: 1;"><g class="legendfill"/><g class="legendlines"><path class="js-line" d="M5,0h30" style="fill: none; stroke: rgb(124, 181, 236); stroke-opacity: 1; stroke-width: 2px;"/></g><g class="legendsymbols"><g class="legendpoints"/></g></g><rect class="legendtoggle" x="0" y="-9.5" width="738.1875" height="19" style="fill: rgb(0, 0, 0); fill-opacity: 0;"/></g><g class="traces" transform="translate(0,223.5)" style="opacity: 1;"><text class="legendtext" text-anchor="start" x="40" y="4.680000000000001" style="font-family: 'Lucida Grande', 'Open Sans', verdana, arial, sans-serif; font-size: 12px; fill: rgb(68, 68, 68); fill-opacity: 1; white-space: pre;">/ | beegfs | scratch | ric.sessa | kubacki.michal | SRF_Eva | results | 02_trimmed | TES-1_R2_001.fastq.gz - Adapter 1</text><g class="layers" style="opacity: 1;"><g class="legendfill"/><g class="legendlines"><path class="js-line" d="M5,0h30" style="fill: none; stroke: rgb(67, 67, 72); stroke-opacity: 1; stroke-width: 2px;"/></g><g class="legendsymbols"><g class="legendpoints"/></g></g><rect class="legendtoggle" x="0" y="-9.5" width="738.1875" height="19" style="fill: rgb(0, 0, 0); fill-opacity: 0;"/></g><g class="traces" transform="translate(0,242.5)" style="opacity: 1;"><text class="legendtext" text-anchor="start" x="40" y="4.680000000000001" style="font-family: 'Lucida Grande', 'Open Sans', verdana, arial, sans-serif; font-size: 12px; fill: rgb(68, 68, 68); fill-opacity: 1; white-space: pre;">/ | beegfs | scratch | ric.sessa | kubacki.michal | SRF_Eva | results | 02_trimmed | TES-2_R1_001.fastq.gz - Adapter 1</text><g class="layers" style="opacity: 1;"><g class="legendfill"/><g class="legendlines"><path class="js-line" d="M5,0h30" style="fill: none; stroke: rgb(144, 237, 125); stroke-opacity: 1; stroke-width: 2px;"/></g><g class="legendsymbols"><g class="legendpoints"/></g></g><rect class="legendtoggle" x="0" y="-9.5" width="738.1875" height="19" style="fill: rgb(0, 0, 0); fill-opacity: 0;"/></g><g class="traces" transform="translate(0,261.5)" style="opacity: 1;"><text class="legendtext" text-anchor="start" x="40" y="4.680000000000001" style="font-family: 'Lucida Grande', 'Open Sans', verdana, arial, sans-serif; font-size: 12px; fill: rgb(68, 68, 68); fill-opacity: 1; white-space: pre;">/ | beegfs | scratch | ric.sessa | kubacki.michal | SRF_Eva | results | 02_trimmed | TES-2_R2_001.fastq.gz - Adapter 1</text><g class="layers" style="opacity: 1;"><g class="legendfill"/><g class="legendlines"><path class="js-line" d="M5,0h30" style="fill: none; stroke: rgb(247, 163, 92); stroke-opacity: 1; stroke-width: 2px;"/></g><g class="legendsymbols"><g class="legendpoints"/></g></g><rect class="legendtoggle" x="0" y="-9.5" width="738.1875" height="19" style="fill: rgb(0, 0, 0); fill-opacity: 0;"/></g><g class="traces" transform="translate(0,280.5)" style="opacity: 1;"><text class="legendtext" text-anchor="start" x="40" y="4.680000000000001" style="font-family: 'Lucida Grande', 'Open Sans', verdana, arial, sans-serif; font-size: 12px; fill: rgb(68, 68, 68); fill-opacity: 1; white-space: pre;">/ | beegfs | scratch | ric.sessa | kubacki.michal | SRF_Eva | results | 02_trimmed | TES-3_R1_001.fastq.gz - Adapter 1</text><g class="layers" style="opacity: 1;"><g class="legendfill"/><g class="legendlines"><path class="js-line" d="M5,0h30" style="fill: none; stroke: rgb(128, 133, 233); stroke-opacity: 1; stroke-width: 2px;"/></g><g class="legendsymbols"><g class="legendpoints"/></g></g><rect class="legendtoggle" x="0" y="-9.5" width="738.1875" height="19" style="fill: rgb(0, 0, 0); fill-opacity: 0;"/></g><g class="traces" transform="translate(0,299.5)" style="opacity: 1;"><text class="legendtext" text-anchor="start" x="40" y="4.680000000000001" style="font-family: 'Lucida Grande', 'Open Sans', verdana, arial, sans-serif; font-size: 12px; fill: rgb(68, 68, 68); fill-opacity: 1; white-space: pre;">/ | beegfs | scratch | ric.sessa | kubacki.michal | SRF_Eva | results | 02_trimmed | TES-3_R2_001.fastq.gz - Adapter 1</text><g class="layers" style="opacity: 1;"><g class="legendfill"/><g class="legendlines"><path class="js-line" d="M5,0h30" style="fill: none; stroke: rgb(241, 92, 128); stroke-opacity: 1; stroke-width: 2px;"/></g><g class="legendsymbols"><g class="legendpoints"/></g></g><rect class="legendtoggle" x="0" y="-9.5" width="738.1875" height="19" style="fill: rgb(0, 0, 0); fill-opacity: 0;"/></g><g class="traces" transform="translate(0,318.5)" style="opacity: 1;"><text class="legendtext" text-anchor="start" x="40" y="4.680000000000001" style="font-family: 'Lucida Grande', 'Open Sans', verdana, arial, sans-serif; font-size: 12px; fill: rgb(68, 68, 68); fill-opacity: 1; white-space: pre;">/ | beegfs | scratch | ric.sessa | kubacki.michal | SRF_Eva | results | 02_trimmed | TESmut-1_R1_001.fastq.gz - Adapter 1</text><g class="layers" style="opacity: 1;"><g class="legendfill"/><g class="legendlines"><path class="js-line" d="M5,0h30" style="fill: none; stroke: rgb(228, 211, 84); stroke-opacity: 1; stroke-width: 2px;"/></g><g class="legendsymbols"><g class="legendpoints"/></g></g><rect class="legendtoggle" x="0" y="-9.5" width="762.1875" height="19" style="fill: rgb(0, 0, 0); fill-opacity: 0;"/></g><g class="traces" transform="translate(0,337.5)" style="opacity: 1;"><text class="legendtext" text-anchor="start" x="40" y="4.680000000000001" style="font-family: 'Lucida Grande', 'Open Sans', verdana, arial, sans-serif; font-size: 12px; fill: rgb(68, 68, 68); fill-opacity: 1; white-space: pre;">/ | beegfs | scratch | ric.sessa | kubacki.michal | SRF_Eva | results | 02_trimmed | TESmut-1_R2_001.fastq.gz - Adapter 1</text><g class="layers" style="opacity: 1;"><g class="legendfill"/><g class="legendlines"><path class="js-line" d="M5,0h30" style="fill: none; stroke: rgb(43, 144, 143); stroke-opacity: 1; stroke-width: 2px;"/></g><g class="legendsymbols"><g class="legendpoints"/></g></g><rect class="legendtoggle" x="0" y="-9.5" width="762.1875" height="19" style="fill: rgb(0, 0, 0); fill-opacity: 0;"/></g><g class="traces" transform="translate(0,356.5)" style="opacity: 1;"><text class="legendtext" text-anchor="start" x="40" y="4.680000000000001" style="font-family: 'Lucida Grande', 'Open Sans', verdana, arial, sans-serif; font-size: 12px; fill: rgb(68, 68, 68); fill-opacity: 1; white-space: pre;">/ | beegfs | scratch | ric.sessa | kubacki.michal | SRF_Eva | results | 02_trimmed | TESmut-2_R1_001.fastq.gz - Adapter 1</text><g class="layers" style="opacity: 1;"><g class="legendfill"/><g class="legendlines"><path class="js-line" d="M5,0h30" style="fill: none; stroke: rgb(244, 91, 91); stroke-opacity: 1; stroke-width: 2px;"/></g><g class="legendsymbols"><g class="legendpoints"/></g></g><rect class="legendtoggle" x="0" y="-9.5" width="762.1875" height="19" style="fill: rgb(0, 0, 0); fill-opacity: 0;"/></g><g class="traces" transform="translate(0,375.5)" style="opacity: 1;"><text class="legendtext" text-anchor="start" x="40" y="4.680000000000001" style="font-family: 'Lucida Grande', 'Open Sans', verdana, arial, sans-serif; font-size: 12px; fill: rgb(68, 68, 68); fill-opacity: 1; white-space: pre;">/ | beegfs | scratch | ric.sessa | kubacki.michal | SRF_Eva | results | 02_trimmed | TESmut-2_R2_001.fastq.gz - Adapter 1</text><g class="layers" style="opacity: 1;"><g class="legendfill"/><g class="legendlines"><path class="js-line" d="M5,0h30" style="fill: none; stroke: rgb(145, 232, 225); stroke-opacity: 1; stroke-width: 2px;"/></g><g class="legendsymbols"><g class="legendpoints"/></g></g><rect class="legendtoggle" x="0" y="-9.5" width="762.1875" height="19" style="fill: rgb(0, 0, 0); fill-opacity: 0;"/></g><g class="traces" transform="translate(0,394.5)" style="opacity: 1;"><text class="legendtext" text-anchor="start" x="40" y="4.680000000000001" style="font-family: 'Lucida Grande', 'Open Sans', verdana, arial, sans-serif; font-size: 12px; fill: rgb(68, 68, 68); fill-opacity: 1; white-space: pre;">/ | beegfs | scratch | ric.sessa | kubacki.michal | SRF_Eva | results | 02_trimmed | TESmut-3_R1_001.fastq.gz - Adapter 1</text><g class="layers" style="opacity: 1;"><g class="legendfill"/><g class="legendlines"><path class="js-line" d="M5,0h30" style="fill: none; stroke: rgb(124, 181, 236); stroke-opacity: 1; stroke-width: 2px;"/></g><g class="legendsymbols"><g class="legendpoints"/></g></g><rect class="legendtoggle" x="0" y="-9.5" width="762.1875" height="19" style="fill: rgb(0, 0, 0); fill-opacity: 0;"/></g><g class="traces" transform="translate(0,413.5)" style="opacity: 1;"><text class="legendtext" text-anchor="start" x="40" y="4.680000000000001" style="font-family: 'Lucida Grande', 'Open Sans', verdana, arial, sans-serif; font-size: 12px; fill: rgb(68, 68, 68); fill-opacity: 1; white-space: pre;">/ | beegfs | scratch | ric.sessa | kubacki.michal | SRF_Eva | results | 02_trimmed | TESmut-3_R2_001.fastq.gz - Adapter 1</text><g class="layers" style="opacity: 1;"><g class="legendfill"/><g class="legendlines"><path class="js-line" d="M5,0h30" style="fill: none; stroke: rgb(67, 67, 72); stroke-opacity: 1; stroke-width: 2px;"/></g><g class="legendsymbols"><g class="legendpoints"/></g></g><rect class="legendtoggle" x="0" y="-9.5" width="762.1875" height="19" style="fill: rgb(0, 0, 0); fill-opacity: 0;"/></g></g></g><rect class="scrollbar" rx="20" ry="3" width="0" height="0" style="fill: rgb(128, 139, 164); fill-opacity: 1;" x="0" y="0"/></g><g class="g-gtitle"><text class="gtitle" x="300" y="25" text-anchor="middle" dy="0em" style="opacity: 1; font-family: 'Lucida Grande', 'Open Sans', verdana, arial, sans-serif; font-size: 20px; fill: rgb(68, 68, 68); fill-opacity: 1; white-space: pre;"><tspan class="line" dy="0em" x="300" y="25">Cutadapt: Lengths of Trimmed Sequences (3' end)</tspan><tspan class="line" dy="1.3em" x="300" y="25"><tspan style="font-size:70%" dy="-0.6em">Counts, 22 samples</tspan><tspan dy="0.42em"></tspan></tspan></text></g><g class="g-xtitle"><text class="xtitle" x="320" y="313" text-anchor="middle" style="opacity: 0.3; font-family: 'Lucida Grande', 'Open Sans', verdana, arial, sans-serif; font-size: 14px; fill: rgb(0, 0, 0); fill-opacity: 1; white-space: pre;">Length Trimmed (bp)</text></g><g class="g-ytitle"><text class="ytitle" transform="rotate(-90,22,155.5)" x="22" y="155.5" text-anchor="middle" style="opacity: 0.3; font-family: 'Lucida Grande', 'Open Sans', verdana, arial, sans-serif; font-size: 14px; fill: rgb(0, 0, 0); fill-opacity: 1; white-space: pre;">Count</text></g></g></svg>