<svg class="main-svg" xmlns="http://www.w3.org/2000/svg" xmlns:xlink="http://www.w3.org/1999/xlink" width="1200" height="1220" style="" viewBox="0 0 600 610"><rect x="0" y="0" width="600" height="610" style="fill: rgb(255, 255, 255); fill-opacity: 1;"/><defs id="defs-bd396b"><g class="clips"><clipPath id="clipbd396bxyplot" class="plotclip"><rect width="520" height="211"/></clipPath><clipPath class="axesclip" id="clipbd396bx"><rect x="60" y="0" width="520" height="610"/></clipPath><clipPath class="axesclip" id="clipbd396by"><rect x="0" y="50" width="600" height="211"/></clipPath><clipPath class="axesclip" id="clipbd396bxy"><rect x="60" y="50" width="520" height="211"/></clipPath></g><g class="gradients"/><g class="patterns"/></defs><g class="bglayer"/><g class="layer-below"><g class="imagelayer"/><g class="shapelayer"/></g><g class="cartesianlayer"><g class="subplot xy"><g class="layer-subplot"><g class="shapelayer"/><g class="imagelayer"/></g><g class="minor-gridlayer"><g class="x"/><g class="y"/></g><g class="gridlayer"><g class="x"><path class="xgrid crisp" transform="translate(113.78999999999999,0)" d="M0,50v211" style="stroke: rgb(0, 0, 0); stroke-opacity: 0.05; stroke-width: 1px;"/><path class="xgrid crisp" transform="translate(185.51999999999998,0)" d="M0,50v211" style="stroke: rgb(0, 0, 0); stroke-opacity: 0.05; stroke-width: 1px;"/><path class="xgrid crisp" transform="translate(257.24,0)" d="M0,50v211" style="stroke: rgb(0, 0, 0); stroke-opacity: 0.05; stroke-width: 1px;"/><path class="xgrid crisp" transform="translate(328.97,0)" d="M0,50v211" style="stroke: rgb(0, 0, 0); stroke-opacity: 0.05; stroke-width: 1px;"/><path class="xgrid crisp" transform="translate(400.69,0)" d="M0,50v211" style="stroke: rgb(0, 0, 0); stroke-opacity: 0.05; stroke-width: 1px;"/><path class="xgrid crisp" transform="translate(472.41,0)" d="M0,50v211" style="stroke: rgb(0, 0, 0); stroke-opacity: 0.05; stroke-width: 1px;"/><path class="xgrid crisp" transform="translate(544.14,0)" d="M0,50v211" style="stroke: rgb(0, 0, 0); stroke-opacity: 0.05; stroke-width: 1px;"/></g><g class="y"><path class="ygrid crisp" transform="translate(0,182.3)" d="M60,0h520" style="stroke: rgb(0, 0, 0); stroke-opacity: 0.05; stroke-width: 1px;"/><path class="ygrid crisp" transform="translate(0,103.61)" d="M60,0h520" style="stroke: rgb(0, 0, 0); stroke-opacity: 0.05; stroke-width: 1px;"/></g></g><g class="zerolinelayer"><path class="yzl zl crisp" transform="translate(0,261)" d="M60,0h520" style="stroke: rgb(0, 0, 0); stroke-opacity: 0.05; stroke-width: 1px;"/></g><g class="layer-between"><g class="shapelayer"/><g class="imagelayer"/></g><path class="xlines-below"/><path class="ylines-below"/><g class="overlines-below"/><g class="xaxislayer-below"/><g class="yaxislayer-below"/><g class="overaxes-below"/><g class="overplot"><g class="xy" transform="translate(60,50)" clip-path="url(#clipbd396bxyplot)"><g class="scatterlayer mlayer"><g class="trace scatter trace6e457d" style="stroke-miterlimit: 2; opacity: 1;"><g class="fills"/><g class="errorbars"/><g class="lines"><path class="js-line" d="M0,211L17.93,210.27L21.52,207.82L25.1,198.1L28.69,197.7L50.21,198.57L53.79,198.21L57.38,196.66L60.97,196.48L64.55,195.55L68.14,195.75L82.48,197.38L86.07,196.72L89.66,196.64L93.24,195.4L104,193.4L107.59,193.55L114.76,194.92L118.34,195.36L121.93,195.75L125.52,195.01L129.1,194.25L132.69,191.57L136.28,189.79L139.86,173.67L143.45,178.45L147.03,161.55L150.62,200.12L154.21,91.79L157.79,109.5L161.38,195.69L164.97,177.83L168.55,190.34L172.14,201.6L175.72,191.08L179.31,209.95L182.9,198.33L186.48,205.84L190.07,202.48L193.66,180.95L197.24,205.26L200.83,190.58L204.41,206.66L208,205.93L211.59,197.37L215.17,182.93L218.76,202.44L222.34,210.06L225.93,206.77L229.52,203.04L233.1,201.67L240.28,206.6L243.86,206.29L247.45,193.66L251.03,185.64L254.62,182.08L258.21,183.52L268.97,191.53L272.55,192.07L276.14,190.77L279.72,187.55L286.9,177.34L290.48,173.2L294.07,175.08L297.66,179.75L304.83,189.09L308.41,190.81L312,190.63L315.59,188.05L326.34,172.84L329.93,173.61L333.52,178.9L337.1,185.68L340.69,191.42L344.28,195.42L347.86,196.86L351.45,196.69L355.03,195.11L358.62,194.79L362.21,195.24L365.79,197.83L376.55,205.41L380.14,207.42L387.31,209.13L390.9,209.46L401.66,210.57L405.24,210.68L433.93,210.99L437.52,210.98L516.41,210.99L520,210.35" style="vector-effect: none; fill: none; stroke: rgb(124, 181, 236); stroke-opacity: 1; stroke-width: 2px; opacity: 1;"/></g><g class="points"/><g class="text"/></g><g class="trace scatter tracedf409a" style="stroke-miterlimit: 2; opacity: 1;"><g class="fills"/><g class="errorbars"/><g class="lines"><path class="js-line" d="M0,211L17.93,210.27L21.52,207.85L25.1,198L28.69,197.87L35.86,198.24L39.45,198.44L46.62,198.97L50.21,198.62L57.38,197.11L60.97,196.41L64.55,195.57L68.14,195.61L86.07,197.24L89.66,196.73L104,193.3L107.59,193.59L118.34,195.77L121.93,196.26L125.52,195.84L129.1,194.66L136.28,191.15L139.86,191.45L143.45,190.86L147.03,191.68L154.21,194.21L157.79,194.68L164.97,194.27L168.55,192.05L172.14,188.54L175.72,190.98L179.31,188.38L182.9,188.96L190.07,192.29L193.66,193.26L197.24,193.74L200.83,193.09L204.41,191.36L208,188.11L215.17,182.53L218.76,182.71L222.34,179.52L225.93,201.5L229.52,192.18L233.1,192.99L236.69,192.66L240.28,190.93L243.86,187.93L247.45,183.94L254.62,179.04L258.21,181.9L268.97,190.94L272.55,191.42L276.14,190.17L279.72,187.02L286.9,176.34L290.48,172.18L294.07,174.41L297.66,179.1L304.83,188.7L308.41,190.43L312,190.22L315.59,187.7L326.34,172.31L329.93,173.01L333.52,178.41L337.1,185.32L340.69,191.15L344.28,195.21L347.86,196.68L351.45,196.49L355.03,194.91L358.62,194.58L362.21,195.04L365.79,197.68L376.55,205.35L380.14,207.39L387.31,209.11L390.9,209.44L401.66,210.57L405.24,210.68L433.93,210.99L437.52,210.98L516.41,210.99L520,210.36" style="vector-effect: none; fill: none; stroke: rgb(67, 67, 72); stroke-opacity: 1; stroke-width: 2px; opacity: 1;"/></g><g class="points"/><g class="text"/></g><g class="trace scatter trace52d565" style="stroke-miterlimit: 2; opacity: 1;"><g class="fills"/><g class="errorbars"/><g class="lines"><path class="js-line" d="M0,211L17.93,210.27L21.52,207.74L25.1,197.16L28.69,196.54L46.62,198.97L50.21,198.41L53.79,197.75L57.38,195.52L64.55,193.74L68.14,194.05L75.31,195.59L78.9,196.59L82.48,197.27L86.07,196.73L89.66,196.19L93.24,194.11L100.41,190.56L104,190.6L107.59,190.85L111.17,192.16L118.34,195.46L121.93,195.56L129.1,192.84L132.69,188.71L136.28,186.51L139.86,171.14L143.45,176.94L147.03,161.3L150.62,199.49L154.21,114.07L157.79,97.29L161.38,194.89L164.97,171.8L168.55,188.64L172.14,199.27L175.72,182.19L179.31,209.43L182.9,193.79L186.48,203.51L190.07,200.83L193.66,176.96L197.24,203.49L200.83,185.27L204.41,206.85L208,204.19L211.59,193.45L215.17,172.76L218.76,202.23L222.34,209.9L225.93,204.25L229.52,201.16L233.1,200.39L236.69,202.63L240.28,206.12L243.86,205.71L247.45,190.97L251.03,180.37L254.62,175.69L258.21,179.76L261.79,186.09L265.38,191.74L268.97,195.15L272.55,195.92L276.14,194.47L279.72,190.04L283.31,181.56L290.48,165.56L294.07,171.1L301.24,190.19L304.83,195.52L308.41,197.75L312,197.91L315.59,195.26L319.17,189.23L326.34,175.29L329.93,175.82L337.1,193.39L340.69,199.9L344.28,203.22L347.86,204.49L351.45,204.23L355.03,203.18L362.21,202.06L365.79,203.18L376.55,208.56L380.14,209.69L387.31,210.41L390.9,210.54L419.59,210.96L423.17,210.97L487.72,210.98L491.31,210.97L520,210.98" style="vector-effect: none; fill: none; stroke: rgb(144, 237, 125); stroke-opacity: 1; stroke-width: 2px; opacity: 1;"/></g><g class="points"/><g class="text"/></g><g class="trace scatter trace218f3e" style="stroke-miterlimit: 2; opacity: 1;"><g class="fills"/><g class="errorbars"/><g class="lines"><path class="js-line" d="M0,211L17.93,210.26L21.52,207.76L25.1,197.04L28.69,196.73L35.86,197.76L39.45,198.17L46.62,199.04L50.21,198.45L53.79,197.7L57.38,196.01L64.55,193.79L68.14,193.89L75.31,195.72L78.9,196.84L86.07,197.2L89.66,196.25L100.41,190.72L104,190.48L107.59,191L111.17,192.78L114.76,194.61L118.34,195.57L121.93,195.93L125.52,195.19L129.1,193.34L132.69,190.42L136.28,187.61L139.86,187.4L143.45,186.19L147.03,188.52L150.62,191.7L154.21,193.78L157.79,194.85L161.38,193.61L164.97,193.13L168.55,190.09L172.14,184.12L175.72,186.56L179.31,183.05L182.9,184.73L190.07,191.6L193.66,193.55L197.24,194.43L200.83,192.94L204.41,190.27L208,184.86L215.17,176.27L218.76,177.37L222.34,176.6L225.93,201.37L229.52,193.21L233.1,194.75L236.69,194.11L240.28,191.62L251.03,175.15L254.62,171.98L265.38,191.1L268.97,194.7L272.55,195.43L276.14,194.07L279.72,189.67L283.31,181L290.48,164.45L294.07,170.43L301.24,189.8L304.83,195.27L308.41,197.53L312,197.69L315.59,195.06L319.17,188.96L326.34,174.82L329.93,175.3L337.1,193.16L340.69,199.76L344.28,203.12L347.86,204.41L351.45,204.15L355.03,203.1L362.21,201.96L365.79,203.1L376.55,208.54L380.14,209.67L387.31,210.4L390.9,210.53L419.59,210.96L423.17,210.98L466.21,210.99L469.79,210.99L520,210.98" style="vector-effect: none; fill: none; stroke: rgb(247, 163, 92); stroke-opacity: 1; stroke-width: 2px; opacity: 1;"/></g><g class="points"/><g class="text"/></g><g class="trace scatter traceb301e9" style="stroke-miterlimit: 2; opacity: 1;"><g class="fills"/><g class="errorbars"/><g class="lines"><path class="js-line" d="M0,211L17.93,210.43L21.52,208.52L25.1,200.92L28.69,200.58L50.21,200.58L53.79,200.48L57.38,199.26L60.97,199.1L68.14,198.21L71.72,198.31L78.9,198.5L82.48,199L96.83,196.48L100.41,195.35L121.93,196.35L125.52,196.19L129.1,194.28L132.69,191.28L136.28,191.85L139.86,176.61L143.45,181.71L147.03,167.15L150.62,193.24L154.21,14.46L157.79,121.9L161.38,179.91L164.97,180.93L168.55,192.56L172.14,200.27L175.72,195.25L179.31,210.17L182.9,201.89L186.48,207.63L190.07,203.81L193.66,185.56L197.24,205.94L200.83,198.31L204.41,200.32L208,206.05L211.59,198.63L215.17,182.34L218.76,182.09L222.34,208.65L225.93,209.24L233.1,199.19L236.69,199.51L243.86,207.5L247.45,194.42L251.03,182.95L254.62,177.81L258.21,177.8L261.79,179.45L268.97,184.03L272.55,184.4L276.14,183.64L279.72,181.6L290.48,169.79L294.07,170.9L297.66,173.85L301.24,178.59L304.83,181.96L308.41,183.99L312,184.32L315.59,183.49L319.17,180.45L322.76,178.69L326.34,176.39L329.93,177.26L344.28,194.76L347.86,196.48L362.21,199.82L365.79,201.95L372.97,205.63L376.55,207.15L383.72,209.46L387.31,209.88L408.83,210.94L412.41,210.96L516.41,210.98L520,208.31" style="vector-effect: none; fill: none; stroke: rgb(128, 133, 233); stroke-opacity: 1; stroke-width: 2px; opacity: 1;"/></g><g class="points"/><g class="text"/></g><g class="trace scatter trace8a90b7" style="stroke-miterlimit: 2; opacity: 1;"><g class="fills"/><g class="errorbars"/><g class="lines"><path class="js-line" d="M0,211L17.93,210.43L21.52,208.54L25.1,200.85L28.69,200.74L39.45,200.68L43.03,201.02L53.79,200.43L57.38,199.63L68.14,198.11L71.72,198.17L89.66,198.68L93.24,197.73L104,195.43L107.59,195.38L121.93,196.73L125.52,196.49L143.45,191.37L147.03,191.88L157.79,194L161.38,193.32L164.97,193.01L168.55,191.7L172.14,187.95L175.72,190.6L179.31,187.47L182.9,187.08L193.66,190.35L197.24,190.81L200.83,190.12L204.41,188.51L215.17,179.35L218.76,178.31L222.34,173.45L225.93,199L229.52,187.14L233.1,187.55L236.69,187.08L240.28,185.77L247.45,179.95L251.03,176.58L254.62,173.98L258.21,175.75L268.97,183.22L272.55,183.56L276.14,182.82L279.72,180.85L290.48,168.69L294.07,170.15L297.66,173.09L301.24,177.93L304.83,181.42L308.41,183.43L312,183.77L315.59,183.01L319.17,179.98L322.76,178.17L326.34,175.89L329.93,176.71L344.28,194.53L347.86,196.29L358.62,198.38L362.21,199.69L372.97,205.57L376.55,207.11L383.72,209.45L387.31,209.87L408.83,210.94L412.41,210.96L516.41,210.98L520,208.32" style="vector-effect: none; fill: none; stroke: rgb(241, 92, 128); stroke-opacity: 1; stroke-width: 2px; opacity: 1;"/></g><g class="points"/><g class="text"/></g><g class="trace scatter tracef08ea0" style="stroke-miterlimit: 2; opacity: 1;"><g class="fills"/><g class="errorbars"/><g class="lines"><path class="js-line" d="M0,211L14.34,210.8L17.93,210.17L21.52,207.43L25.1,196.47L32.28,195.85L35.86,195.79L53.79,195.66L57.38,193.99L60.97,194.09L64.55,193.23L78.9,192.95L82.48,193.56L89.66,193.21L93.24,192.17L96.83,191.53L100.41,190.01L104,191.17L107.59,190.21L118.34,191.75L121.93,191.72L125.52,191.5L129.1,189.49L132.69,187.66L136.28,186.97L139.86,176.16L143.45,183.75L147.03,172.91L150.62,193.77L154.21,144.5L157.79,18.38L161.38,161.39L164.97,175.73L172.14,199.69L175.72,186.08L179.31,210.14L182.9,200.83L186.48,205.16L190.07,203.92L193.66,180.48L197.24,204.9L200.83,197.38L204.41,203.84L208,206.07L211.59,200.03L215.17,185.51L218.76,192.85L222.34,209.74L225.93,208.13L229.52,201.71L233.1,198.47L236.69,200.64L240.28,204.49L243.86,208.22L247.45,198.1L251.03,191.06L254.62,187.8L258.21,187.74L261.79,188.95L268.97,191.54L272.55,191.78L276.14,191.93L279.72,190.97L290.48,186.38L294.07,187.2L308.41,193.27L312,193.57L315.59,193.17L319.17,192.01L326.34,190.08L329.93,190.89L344.28,198.62L347.86,199.42L358.62,200.69L362.21,201.73L372.97,206.33L376.55,207.39L383.72,209.08L387.31,209.51L408.83,210.88L412.41,210.93L516.41,210.99L520,210.09" style="vector-effect: none; fill: none; stroke: rgb(228, 211, 84); stroke-opacity: 1; stroke-width: 2px; opacity: 1;"/></g><g class="points"/><g class="text"/></g><g class="trace scatter tracec78f92" style="stroke-miterlimit: 2; opacity: 1;"><g class="fills"/><g class="errorbars"/><g class="lines"><path class="js-line" d="M0,211L14.34,210.8L17.93,210.16L21.52,207.45L25.1,196.34L39.45,195.74L43.03,196.13L53.79,195.57L57.38,194.46L71.72,192.9L75.31,193.23L89.66,193.26L93.24,192.45L104,190.46L107.59,190.32L111.17,191.09L114.76,191.01L121.93,191.84L125.52,191.72L132.69,189.7L136.28,187.57L139.86,188.69L143.45,187.66L157.79,190.16L161.38,189.7L164.97,190.26L168.55,188.77L172.14,185.6L175.72,188.95L179.31,186.31L182.9,186.51L193.66,189.25L197.24,189.71L204.41,188.71L208,186.64L211.59,185.2L215.17,182.95L218.76,182.85L222.34,178.16L225.93,200.76L229.52,190.07L240.28,189.83L243.86,188.87L254.62,184.66L258.21,186.13L268.97,190.92L272.55,191.15L276.14,191.3L279.72,190.44L290.48,185.75L294.07,186.78L308.41,192.95L312,193.25L315.59,192.9L319.17,191.75L326.34,189.81L329.93,190.59L344.28,198.46L347.86,199.28L358.62,200.57L362.21,201.64L372.97,206.28L376.55,207.35L383.72,209.06L387.31,209.49L408.83,210.87L412.41,210.93L516.41,210.99L520,210.09" style="vector-effect: none; fill: none; stroke: rgb(43, 144, 143); stroke-opacity: 1; stroke-width: 2px; opacity: 1;"/></g><g class="points"/><g class="text"/></g><g class="trace scatter traceb1904d" style="stroke-miterlimit: 2; opacity: 1;"><g class="fills"/><g class="errorbars"/><g class="lines"><path class="js-line" d="M0,211L14.34,210.81L17.93,210.22L21.52,207.59L25.1,197.26L32.28,196.46L35.86,196.59L50.21,197.34L53.79,196.92L57.38,195.34L60.97,195.22L64.55,193.91L68.14,193.75L86.07,195.33L89.66,195.12L100.41,191.28L104,191.11L111.17,191.32L114.76,192.53L125.52,193.38L129.1,191.49L136.28,187.71L139.86,174.59L143.45,176.71L147.03,157.36L150.62,198.08L154.21,89.62L157.79,138.52L161.38,87.72L164.97,174.75L168.55,160.89L172.14,192.02L175.72,202.83L179.31,209.34L182.9,208.69L186.48,209.41L190.07,205.61L193.66,193.15L197.24,203.01L200.83,195.74L204.41,199.76L208,205.2L211.59,198.53L215.17,184.27L218.76,186.07L222.34,206.81L225.93,210.1L229.52,209.44L233.1,207.2L236.69,206.94L240.28,207.93L243.86,207.24L247.45,198.09L251.03,188.14L254.62,183.15L258.21,183.5L261.79,185.65L268.97,190.37L272.55,191L276.14,190.99L279.72,189.04L290.48,180.9L294.07,182.3L304.83,191.78L308.41,193.31L312,193.93L315.59,193.29L326.34,188.63L329.93,189.64L344.28,201.58L347.86,202.67L365.79,205.59L369.38,206.92L380.14,209.71L383.72,210.2L408.83,210.94L412.41,210.96L516.41,210.99L520,210.22" style="vector-effect: none; fill: none; stroke: rgb(244, 91, 91); stroke-opacity: 1; stroke-width: 2px; opacity: 1;"/></g><g class="points"/><g class="text"/></g><g class="trace scatter tracec2e6c5" style="stroke-miterlimit: 2; opacity: 1;"><g class="fills"/><g class="errorbars"/><g class="lines"><path class="js-line" d="M0,211L14.34,210.81L17.93,210.21L21.52,207.61L25.1,197.14L32.28,196.38L35.86,196.83L43.03,197.37L46.62,197.56L53.79,196.84L57.38,195.84L68.14,193.61L71.72,193.91L86.07,195.75L89.66,195.16L96.83,192.88L100.41,191.55L104,190.75L107.59,190.97L125.52,193.81L129.1,192.54L136.28,188.66L139.86,188.82L143.45,187.59L147.03,188.38L157.79,191.63L161.38,191.48L164.97,191.41L168.55,189.84L172.14,185.56L175.72,188.47L179.31,185.05L182.9,185.35L193.66,189.93L197.24,190.85L200.83,190.39L204.41,188.86L215.17,180.16L218.76,179.78L222.34,175.49L225.93,199.8L229.52,189.39L233.1,190.34L240.28,189.28L243.86,186.97L251.03,181.37L254.62,179.72L258.21,181.65L261.79,184.54L268.97,189.65L272.55,190.33L276.14,190.38L279.72,188.42L290.48,179.94L294.07,181.56L304.83,191.38L308.41,192.92L312,193.55L315.59,192.94L326.34,188.27L329.93,189.24L344.28,201.44L347.86,202.55L365.79,205.51L369.38,206.87L380.14,209.68L383.72,210.19L408.83,210.95L412.41,210.96L516.41,210.99L520,210.22" style="vector-effect: none; fill: none; stroke: rgb(145, 232, 225); stroke-opacity: 1; stroke-width: 2px; opacity: 1;"/></g><g class="points"/><g class="text"/></g><g class="trace scatter trace9a8036" style="stroke-miterlimit: 2; opacity: 1;"><g class="fills"/><g class="errorbars"/><g class="lines"><path class="js-line" d="M0,211L17.93,210.31L21.52,208L25.1,199.66L28.69,199.04L39.45,199.68L43.03,201.03L50.21,201.09L53.79,200.74L57.38,198.69L60.97,198.7L64.55,197.48L68.14,197.25L75.31,197.51L78.9,198.75L82.48,198.9L86.07,200.81L89.66,200.14L93.24,198.28L104,194.8L107.59,194.99L111.17,194.69L114.76,196.6L121.93,198.81L125.52,198.51L129.1,197.11L132.69,194.82L136.28,192.58L139.86,180.77L143.45,187.17L147.03,177.16L150.62,201.08L154.21,169.25L157.79,165.41L161.38,198.47L164.97,182.43L168.55,192.41L172.14,197.67L175.72,180.41L179.31,205.99L182.9,187.05L186.48,195.93L190.07,197.39L193.66,180.35L197.24,196.44L200.83,177.83L204.41,207.89L208,197.85L211.59,191.94L215.17,152.31L218.76,206.58L222.34,207.65L225.93,196.01L233.1,193.33L236.69,195.81L240.28,203.5L243.86,203.83L247.45,190.55L251.03,182.54L254.62,178.17L258.21,180.45L268.97,192.4L272.55,192.85L276.14,192.72L279.72,189.34L290.48,171.32L294.07,173.96L304.83,191.83L308.41,194.04L312,194.61L315.59,192.59L326.34,178.99L329.93,180L340.69,197.38L344.28,200.92L347.86,202.52L351.45,202.34L358.62,200.67L362.21,200.93L380.14,209.17L383.72,209.95L405.24,210.87L408.83,210.92L516.41,210.99L520,210.59" style="vector-effect: none; fill: none; stroke: rgb(124, 181, 236); stroke-opacity: 1; stroke-width: 2px; opacity: 1;"/></g><g class="points"/><g class="text"/></g><g class="trace scatter trace443651" style="stroke-miterlimit: 2; opacity: 1;"><g class="fills"/><g class="errorbars"/><g class="lines"><path class="js-line" d="M0,211L17.93,210.3L21.52,208.03L25.1,199.57L28.69,199.22L39.45,199.73L43.03,201.03L50.21,201.1L53.79,200.74L57.38,199.21L60.97,198.64L68.14,197.14L71.72,197.44L75.31,197.7L78.9,199.31L86.07,200.39L89.66,200.1L100.41,195.8L104,194.82L111.17,195.19L114.76,196.99L121.93,198.95L125.52,199.09L132.69,196.06L136.28,193.32L143.45,191.35L147.03,191.55L154.21,195.88L157.79,197.08L161.38,197.21L164.97,196.29L168.55,194.7L172.14,190.43L175.72,190.89L179.31,187.88L182.9,187.11L186.48,190.22L193.66,194.45L197.24,195.89L204.41,193.54L208,189.22L215.17,180.84L218.76,179.27L222.34,177.5L225.93,201.19L229.52,192.41L233.1,194.32L240.28,192.61L243.86,188.83L251.03,179.27L254.62,175.49L258.21,178.97L261.79,183.68L268.97,191.94L272.55,192.36L276.14,192.33L279.72,188.99L290.48,170.66L294.07,173.57L304.83,191.59L308.41,193.82L312,194.36L315.59,192.41L326.34,178.69L329.93,179.67L340.69,197.24L344.28,200.82L347.86,202.45L351.45,202.26L358.62,200.59L362.21,200.86L380.14,209.16L383.72,209.95L408.83,210.92L412.41,210.94L520,210.59" style="vector-effect: none; fill: none; stroke: rgb(67, 67, 72); stroke-opacity: 1; stroke-width: 2px; opacity: 1;"/></g><g class="points"/><g class="text"/></g><g class="trace scatter traceba5cba" style="stroke-miterlimit: 2; opacity: 1;"><g class="fills"/><g class="errorbars"/><g class="lines"><path class="js-line" d="M0,211L14.34,210.81L17.93,210.22L21.52,207.6L25.1,199.3L28.69,198.57L32.28,198.83L39.45,198.6L43.03,199.76L53.79,198.55L57.38,196.01L60.97,196.85L64.55,195.65L68.14,195.4L71.72,195.97L75.31,195.33L78.9,196.71L82.48,197.28L86.07,196.44L89.66,196.37L93.24,193.91L96.83,193.28L100.41,191.43L104,192.31L107.59,191.69L111.17,191.44L114.76,193.78L118.34,194.45L121.93,194.03L125.52,194.52L129.1,190.04L132.69,189.37L136.28,187.12L139.86,169.52L143.45,174.15L147.03,151.18L150.62,194.74L154.21,10.55L157.79,126.64L161.38,142.37L164.97,174.24L168.55,182.17L172.14,197.6L175.72,198.43L179.31,210.01L182.9,206.01L186.48,208.62L190.07,205.02L193.66,189.58L197.24,204.77L200.83,197.47L208,205.82L211.59,197.07L215.17,179.12L218.76,181.08L222.34,207.76L225.93,209.85L233.1,203.31L236.69,202.57L240.28,205.5L243.86,207.09L251.03,180.83L254.62,173.31L261.79,182.77L265.38,186.6L268.97,190.07L272.55,188.63L276.14,189.45L279.72,186.15L290.48,165.74L294.07,171.8L301.24,186.91L304.83,191.61L312,193.49L315.59,192.08L326.34,178.84L329.93,180.94L337.1,194.17L340.69,199.11L344.28,201.69L347.86,203.16L351.45,203.59L355.03,203.17L362.21,203.55L365.79,204.92L380.14,209.83L383.72,210.32L405.24,210.94L408.83,210.96L520,210.98" style="vector-effect: none; fill: none; stroke: rgb(144, 237, 125); stroke-opacity: 1; stroke-width: 2px; opacity: 1;"/></g><g class="points"/><g class="text"/></g><g class="trace scatter tracedea88a" style="stroke-miterlimit: 2; opacity: 1;"><g class="fills"/><g class="errorbars"/><g class="lines"><path class="js-line" d="M0,211L14.34,210.81L17.93,210.21L21.52,207.63L25.1,199.2L32.28,198.77L35.86,199.15L39.45,198.64L43.03,199.79L53.79,198.53L57.38,196.54L60.97,196.78L64.55,195.71L68.14,195.25L71.72,195.82L75.31,195.5L78.9,197.09L86.07,197.18L89.66,196.6L93.24,194.46L96.83,193.91L100.41,192.27L104,191.79L111.17,191.81L114.76,193.98L121.93,194.86L125.52,194.8L129.1,191.67L132.69,191.27L136.28,188.19L139.86,188.07L147.03,186.84L150.62,190.17L154.21,191.59L157.79,192.04L161.38,191.87L164.97,189.92L168.55,189.03L172.14,183.96L175.72,185.78L179.31,182.51L182.9,181.99L186.48,185.93L190.07,188.58L193.66,189.6L197.24,190.71L200.83,187.76L204.41,187.51L208,182.62L215.17,174.74L218.76,172.64L222.34,172.61L225.93,199.41L229.52,188.72L233.1,189.87L236.69,187.24L240.28,187.51L243.86,183.04L247.45,177.23L254.62,168.67L258.21,175.87L265.38,185.65L268.97,189.4L272.55,187.84L276.14,188.78L279.72,185.49L283.31,178.91L290.48,164.26L294.07,170.81L301.24,186.34L304.83,191.2L312,193.1L315.59,191.73L326.34,178.29L329.93,180.36L337.1,193.88L340.69,198.91L344.28,201.53L347.86,203.05L351.45,203.47L355.03,203.05L362.21,203.45L365.79,204.83L380.14,209.82L383.72,210.31L405.24,210.95L408.83,210.96L520,210.98" style="vector-effect: none; fill: none; stroke: rgb(247, 163, 92); stroke-opacity: 1; stroke-width: 2px; opacity: 1;"/></g><g class="points"/><g class="text"/></g><g class="trace scatter trace3335d9" style="stroke-miterlimit: 2; opacity: 1;"><g class="fills"/><g class="errorbars"/><g class="lines"><path class="js-line" d="M0,211L17.93,210.41L21.52,208.45L25.1,200.76L28.69,200.1L39.45,201.11L43.03,202.34L50.21,202.64L53.79,201.82L57.38,199.53L60.97,199.03L64.55,197.58L68.14,197.26L75.31,197.68L78.9,198.96L82.48,198.92L86.07,202.44L89.66,200.93L93.24,198.6L100.41,194.51L104,193.89L111.17,194.35L114.76,196.95L118.34,198.51L121.93,199.18L129.1,197.35L132.69,193.67L136.28,191.46L139.86,177.1L143.45,184.65L147.03,174.27L150.62,199.29L154.21,167.63L157.79,163.14L161.38,198.26L164.97,181.55L168.55,194.71L172.14,196.54L175.72,174.12L179.31,205.28L182.9,184.15L186.48,191.83L190.07,197.35L193.66,182.86L197.24,192.63L200.83,180.18L204.41,207.55L208,194.88L211.59,190.14L215.17,147.23L218.76,205.4L222.34,205.26L225.93,193.36L229.52,192.98L233.1,191.82L236.69,193.63L240.28,202.04L243.86,202.91L247.45,187.82L251.03,177.56L254.62,171.2L258.21,174.16L261.79,180.22L268.97,191.81L272.55,192.28L276.14,192.47L279.72,187.48L290.48,160.36L294.07,164.38L304.83,189.74L308.41,193.07L312,194.04L315.59,191.01L326.34,168.47L329.93,168.45L340.69,194L344.28,199.11L347.86,201.03L351.45,200.49L355.03,197.91L358.62,196.5L362.21,196.18L365.79,197.79L380.14,207.97L383.72,209.26L401.66,210.61L405.24,210.74L433.93,210.98L437.52,210.97L520,210.73" style="vector-effect: none; fill: none; stroke: rgb(128, 133, 233); stroke-opacity: 1; stroke-width: 2px; opacity: 1;"/></g><g class="points"/><g class="text"/></g><g class="trace scatter trace315bd7" style="stroke-miterlimit: 2; opacity: 1;"><g class="fills"/><g class="errorbars"/><g class="lines"><path class="js-line" d="M0,211L17.93,210.41L21.52,208.48L25.1,200.68L28.69,200.31L35.86,200.62L39.45,201.19L43.03,202.35L46.62,202.72L50.21,202.68L53.79,201.84L60.97,199L64.55,197.68L68.14,197.15L71.72,197.56L75.31,197.94L78.9,199.88L86.07,201.52L89.66,201L100.41,195.16L104,193.98L111.17,194.73L114.76,197L118.34,198.64L121.93,199.36L125.52,199.39L129.1,197.6L132.69,195.51L136.28,192.16L143.45,188.69L147.03,189.38L154.21,195.72L157.79,197.31L161.38,197.47L164.97,195.82L168.55,194.09L172.14,189.29L175.72,187.76L179.31,184.61L182.9,183.3L186.48,187.84L193.66,194.35L197.24,196.19L204.41,192.99L208,187.33L215.17,176.21L218.76,173.82L222.34,172.31L225.93,200.05L229.52,191.5L233.1,194.45L240.28,192.1L243.86,186.92L251.03,173.55L254.62,167.55L258.21,172.23L261.79,178.96L268.97,191.3L272.55,191.7L276.14,192.01L279.72,187.06L290.48,159.46L294.07,163.79L297.66,171.98L301.24,182.13L304.83,189.42L308.41,192.81L312,193.77L315.59,190.81L326.34,168.04L329.93,167.95L340.69,193.81L344.28,198.98L347.86,200.92L351.45,200.38L355.03,197.8L358.62,196.38L362.21,196.07L365.79,197.69L380.14,207.95L383.72,209.25L405.24,210.74L408.83,210.85L469.79,210.99L473.38,210.97L520,210.73" style="vector-effect: none; fill: none; stroke: rgb(241, 92, 128); stroke-opacity: 1; stroke-width: 2px; opacity: 1;"/></g><g class="points"/><g class="text"/></g><g class="trace scatter tracebbb6de" style="stroke-miterlimit: 2; opacity: 1;"><g class="fills"/><g class="errorbars"/><g class="lines"><path class="js-line" d="M0,211L14.34,210.84L17.93,210.23L21.52,207.75L25.1,200.08L28.69,199.63L32.28,200.1L35.86,200.62L39.45,200.27L43.03,202.1L46.62,202.22L53.79,201.48L57.38,198.19L60.97,198.96L64.55,197.77L68.14,197.75L71.72,198.7L75.31,197.25L78.9,199.93L82.48,201.33L86.07,200.57L89.66,200.84L93.24,197.16L96.83,197.28L100.41,195.64L104,194.9L107.59,195.6L111.17,193.76L114.76,197.8L118.34,199.1L121.93,199.11L125.52,199.86L129.1,195.32L132.69,194.65L136.28,192.7L139.86,178.69L143.45,187.88L147.03,175.27L150.62,202.7L154.21,177.76L157.79,159.62L161.38,197.33L164.97,177.52L168.55,192.69L172.14,197.05L175.72,174.62L179.31,206.79L182.9,182.29L186.48,195.95L190.07,198.79L193.66,177.43L197.24,194.85L200.83,174.84L204.41,207.64L208,196.93L211.59,191.83L215.17,150.55L218.76,206.02L222.34,207.71L225.93,196.19L229.52,194.17L233.1,193.95L236.69,192.51L240.28,203.18L243.86,203.85L247.45,188.02L251.03,180.45L254.62,168.65L258.21,178.02L268.97,194.69L272.55,190.17L276.14,194.55L279.72,189.65L283.31,180.36L286.9,173.84L290.48,162.35L294.07,169.93L304.83,193.99L308.41,195.54L312,197.49L315.59,194.81L326.34,173.07L329.93,173.49L337.1,189.64L340.69,197.33L344.28,201.84L347.86,203.97L351.45,203.38L355.03,201.09L358.62,199.29L362.21,198.44L365.79,199.88L369.38,202.25L380.14,208.87L383.72,209.94L405.24,210.82L408.83,210.88L469.79,210.99L473.38,210.97L516.41,210.99L520,210.08" style="vector-effect: none; fill: none; stroke: rgb(228, 211, 84); stroke-opacity: 1; stroke-width: 2px; opacity: 1;"/></g><g class="points"/><g class="text"/></g><g class="trace scatter trace49ed3d" style="stroke-miterlimit: 2; opacity: 1;"><g class="fills"/><g class="errorbars"/><g class="lines"><path class="js-line" d="M0,211L14.34,210.84L17.93,210.22L21.52,207.77L25.1,199.97L32.28,200.05L35.86,200.83L39.45,200.31L43.03,202.1L50.21,201.95L53.79,201.45L57.38,198.67L60.97,198.88L64.55,197.82L68.14,197.61L71.72,198.56L75.31,197.39L78.9,200.23L82.48,201.37L89.66,200.97L93.24,197.49L96.83,197.54L100.41,196.02L104,194.7L107.59,195.87L111.17,194.21L114.76,197.95L118.34,199.54L121.93,199.4L125.52,200.14L129.1,195.63L132.69,196.13L136.28,193.49L139.86,191.65L143.45,191.64L147.03,188.98L150.62,194.87L154.21,197.33L157.79,197.41L161.38,198.62L164.97,193.45L168.55,194.75L172.14,190.48L179.31,188.05L182.9,182.09L186.48,190.57L190.07,193.61L193.66,194.49L197.24,197.49L200.83,190.88L204.41,193.21L208,188.49L211.59,182.22L215.17,179.88L218.76,172.24L222.34,176.67L225.93,201.19L229.52,191.85L233.1,196.03L236.69,188.83L240.28,192.96L243.86,188.03L247.45,180.12L251.03,177.1L254.62,165.02L258.21,176.41L261.79,182.68L265.38,187.33L268.97,194.34L272.55,189.55L276.14,194.18L279.72,189.32L283.31,179.8L286.9,173.06L290.48,161.55L304.83,193.76L308.41,195.31L312,197.28L315.59,194.65L326.34,172.71L329.93,173.1L337.1,189.43L340.69,197.17L344.28,201.76L347.86,203.9L351.45,203.3L355.03,201L358.62,199.19L362.21,198.35L365.79,199.79L369.38,202.19L380.14,208.86L383.72,209.94L405.24,210.81L408.83,210.88L469.79,210.99L473.38,210.97L516.41,210.99L520,210.08" style="vector-effect: none; fill: none; stroke: rgb(43, 144, 143); stroke-opacity: 1; stroke-width: 2px; opacity: 1;"/></g><g class="points"/><g class="text"/></g><g class="trace scatter trace6ee7d2" style="stroke-miterlimit: 2; opacity: 1;"><g class="fills"/><g class="errorbars"/><g class="lines"><path class="js-line" d="M0,211L17.93,210.29L21.52,207.98L25.1,201.61L28.69,201.1L35.86,201.94L39.45,201.03L43.03,202.83L46.62,202.88L53.79,202.44L57.38,199.41L60.97,200.51L64.55,199.45L68.14,199.14L71.72,199.99L75.31,198.29L78.9,200.75L82.48,201.87L86.07,201.1L89.66,201.66L93.24,198.06L96.83,198.86L100.41,196.63L107.59,197.38L111.17,194.85L114.76,198.73L118.34,199.9L121.93,199.69L125.52,200.38L129.1,195.83L132.69,195.42L136.28,194.17L139.86,177.32L143.45,188.23L147.03,174L150.62,202.24L154.21,148.17L157.79,84.65L161.38,190.56L164.97,173.48L168.55,193.3L172.14,201.18L175.72,185.66L179.31,210.07L182.9,193.72L186.48,205.28L190.07,203.25L193.66,180.64L197.24,204.91L200.83,191.62L204.41,205.39L208,205.54L211.59,198.47L215.17,182L218.76,194.64L222.34,210.05L225.93,205.96L229.52,200.53L233.1,200.52L236.69,198.69L240.28,205.36L243.86,207.12L247.45,192.03L251.03,183.93L254.62,168.47L258.21,179.4L261.79,183.34L265.38,186.64L268.97,193.15L272.55,184.82L276.14,192.76L279.72,188.23L283.31,179.25L286.9,174.73L290.48,156.95L294.07,169.75L297.66,176.36L304.83,191.79L308.41,188.7L312,194.96L315.59,192.48L322.76,179.77L326.34,170.31L329.93,172.92L333.52,179.61L340.69,195.67L344.28,199.57L347.86,201.92L351.45,201.46L358.62,197.93L362.21,197.04L369.38,201.39L372.97,204.05L380.14,208.4L383.72,209.61L401.66,210.71L405.24,210.79L444.69,210.98L448.28,210.99L520,210.67" style="vector-effect: none; fill: none; stroke: rgb(244, 91, 91); stroke-opacity: 1; stroke-width: 2px; opacity: 1;"/></g><g class="points"/><g class="text"/></g><g class="trace scatter trace284a77" style="stroke-miterlimit: 2; opacity: 1;"><g class="fills"/><g class="errorbars"/><g class="lines"><path class="js-line" d="M0,211L17.93,210.28L21.52,208L25.1,201.52L28.69,201.24L32.28,201.3L35.86,202.11L39.45,201.05L43.03,202.83L53.79,202.42L57.38,199.82L60.97,200.45L64.55,199.5L68.14,199.04L71.72,199.84L75.31,198.45L78.9,201.05L82.48,201.93L86.07,201.61L89.66,201.84L93.24,198.36L96.83,199.11L100.41,197.8L104,196.38L107.59,197.37L111.17,195.17L114.76,198.86L118.34,200.02L121.93,199.87L125.52,200.71L129.1,196.3L132.69,197.53L136.28,195.1L139.86,193.59L143.45,193.83L147.03,190.4L150.62,195.75L154.21,197.69L157.79,197.79L161.38,199L164.97,194.34L168.55,196L172.14,191.72L175.72,191.86L179.31,190.51L182.9,183.93L186.48,191.85L190.07,194.36L193.66,194.75L197.24,197.65L200.83,191.26L204.41,194.19L208,190.35L211.59,184.74L215.17,182.65L218.76,174.01L222.34,178.73L225.93,201.21L229.52,191.91L233.1,195.81L236.69,187.75L240.28,193.3L243.86,188.79L247.45,181.69L251.03,179.51L254.62,164.47L258.21,177.69L265.38,185.86L268.97,192.79L272.55,183.94L276.14,192.32L279.72,187.83L283.31,178.6L286.9,173.99L290.48,155.69L294.07,169.16L297.66,175.75L304.83,191.51L308.41,188.31L312,194.68L315.59,192.27L322.76,179.39L326.34,169.84L329.93,172.4L333.52,179.21L340.69,195.47L344.28,199.43L347.86,201.82L351.45,201.35L358.62,197.81L362.21,196.9L369.38,201.31L372.97,203.99L380.14,208.37L383.72,209.6L401.66,210.71L405.24,210.79L444.69,210.98L448.28,210.99L520,210.67" style="vector-effect: none; fill: none; stroke: rgb(145, 232, 225); stroke-opacity: 1; stroke-width: 2px; opacity: 1;"/></g><g class="points"/><g class="text"/></g><g class="trace scatter trace54d812" style="stroke-miterlimit: 2; opacity: 1;"><g class="fills"/><g class="errorbars"/><g class="lines"><path class="js-line" d="M0,211L17.93,210.5L21.52,208.92L25.1,204.16L28.69,203.79L39.45,204L43.03,205.21L53.79,204.74L57.38,202.51L60.97,203.12L64.55,202.3L71.72,202.8L75.31,201.57L78.9,203.35L82.48,204.23L86.07,203.69L89.66,203.93L93.24,201.18L96.83,201.27L100.41,200.03L104,199.61L107.59,200.26L111.17,198.65L114.76,201.52L118.34,202.49L121.93,201.91L125.52,202.45L129.1,198.85L132.69,198.01L136.28,196.85L139.86,182.89L143.45,189.15L147.03,180.93L150.62,197.55L154.21,98.02L157.79,143.22L161.38,154.43L164.97,184.39L168.55,178.29L172.14,195.55L175.72,202.2L179.31,209.93L182.9,205.41L186.48,209.31L190.07,205.96L193.66,194.44L197.24,207.21L200.83,198.07L204.41,204.83L208,207.55L211.59,198.06L215.17,185.73L218.76,186.72L222.34,208.84L225.93,210.26L236.69,204.82L240.28,207.69L243.86,207.39L247.45,195.05L251.03,184.31L254.62,167.95L258.21,178.15L261.79,182.38L265.38,186.13L268.97,192.89L272.55,183.95L276.14,191.4L279.72,185.1L283.31,173.68L286.9,166.7L290.48,142.92L294.07,158.82L297.66,165.71L304.83,185.37L308.41,175.59L312,187.86L315.59,182.14L319.17,168.7L322.76,160.27L326.34,134.33L329.93,146.76L333.52,155.98L337.1,167.92L340.69,182.72L344.28,185.15L347.86,193.19L351.45,191.18L355.03,184.4L358.62,180.93L362.21,176.24L365.79,180.21L380.14,202.67L383.72,206.19L387.31,207.08L390.9,207.13L398.07,209.12L401.66,209.55L419.59,210.83L423.17,210.93L473.38,210.98L476.97,210.99L516.41,210.98L520,207.56" style="vector-effect: none; fill: none; stroke: rgb(124, 181, 236); stroke-opacity: 1; stroke-width: 2px; opacity: 1;"/></g><g class="points"/><g class="text"/></g><g class="trace scatter trace00e538" style="stroke-miterlimit: 2; opacity: 1;"><g class="fills"/><g class="errorbars"/><g class="lines"><path class="js-line" d="M0,211L17.93,210.5L21.52,208.94L25.1,204.11L28.69,203.92L39.45,204.04L43.03,205.23L53.79,204.75L57.38,202.88L60.97,203.1L64.55,202.36L68.14,202.12L71.72,202.68L75.31,201.72L78.9,203.69L82.48,204.39L86.07,204.2L89.66,204.18L93.24,201.54L96.83,201.74L100.41,200.67L104,199.6L107.59,200.39L111.17,198.95L114.76,201.68L118.34,202.67L121.93,202.55L125.52,203.06L129.1,199.58L132.69,200.12L136.28,198.26L139.86,196.51L143.45,196.65L147.03,194.12L150.62,198.74L154.21,200.34L157.79,200.45L161.38,201.09L164.97,197.16L168.55,198.34L172.14,194.34L175.72,194.47L179.31,192.86L182.9,187.48L186.48,194.36L190.07,196.73L193.66,197.24L197.24,199.62L200.83,193.91L204.41,195.87L208,191.9L211.59,186.32L215.17,184.25L218.76,176.72L222.34,180.83L225.93,201.84L229.52,193.48L233.1,197.19L236.69,189.74L240.28,194.1L243.86,189.15L247.45,181.58L251.03,178.46L254.62,163.48L258.21,176.11L265.38,185.21L268.97,192.45L272.55,183L276.14,190.94L279.72,184.59L283.31,172.9L286.9,165.81L290.48,140.82L294.07,157.7L297.66,164.66L301.24,173.72L304.83,184.97L308.41,174.71L312,187.41L315.59,181.67L319.17,168.04L322.76,159.55L326.34,133.13L329.93,145.62L333.52,155.03L337.1,167.21L340.69,182.29L344.28,184.77L347.86,192.96L351.45,190.91L355.03,184.04L358.62,180.55L362.21,175.82L365.79,179.84L369.38,185.31L380.14,202.59L383.72,206.14L387.31,207.05L390.9,207.1L398.07,209.11L401.66,209.54L419.59,210.83L423.17,210.93L462.62,210.95L466.21,210.99L516.41,210.97L520,207.58" style="vector-effect: none; fill: none; stroke: rgb(67, 67, 72); stroke-opacity: 1; stroke-width: 2px; opacity: 1;"/></g><g class="points"/><g class="text"/></g></g></g></g><g class="zerolinelayer-above"/><path class="xlines-above crisp" d="M0,0" style="fill: none;"/><path class="ylines-above crisp" d="M0,0" style="fill: none;"/><g class="overlines-above"/><g class="xaxislayer-above"><g class="xtick"><text text-anchor="middle" x="0" y="277" transform="translate(113.78999999999999,0)" style="font-family: 'Lucida Grande', 'Open Sans', verdana, arial, sans-serif; font-size: 10px; fill: rgb(0, 0, 0); fill-opacity: 1; white-space: pre;">20 bp</text></g><g class="xtick"><text text-anchor="middle" x="0" y="277" style="font-family: 'Lucida Grande', 'Open Sans', verdana, arial, sans-serif; font-size: 10px; fill: rgb(0, 0, 0); fill-opacity: 1; white-space: pre;" transform="translate(185.51999999999998,0)">40 bp</text></g><g class="xtick"><text text-anchor="middle" x="0" y="277" style="font-family: 'Lucida Grande', 'Open Sans', verdana, arial, sans-serif; font-size: 10px; fill: rgb(0, 0, 0); fill-opacity: 1; white-space: pre;" transform="translate(257.24,0)">60 bp</text></g><g class="xtick"><text text-anchor="middle" x="0" y="277" style="font-family: 'Lucida Grande', 'Open Sans', verdana, arial, sans-serif; font-size: 10px; fill: rgb(0, 0, 0); fill-opacity: 1; white-space: pre;" transform="translate(328.97,0)">80 bp</text></g><g class="xtick"><text text-anchor="middle" x="0" y="277" style="font-family: 'Lucida Grande', 'Open Sans', verdana, arial, sans-serif; font-size: 10px; fill: rgb(0, 0, 0); fill-opacity: 1; white-space: pre;" transform="translate(400.69,0)">100 bp</text></g><g class="xtick"><text text-anchor="middle" x="0" y="277" style="font-family: 'Lucida Grande', 'Open Sans', verdana, arial, sans-serif; font-size: 10px; fill: rgb(0, 0, 0); fill-opacity: 1; white-space: pre;" transform="translate(472.41,0)">120 bp</text></g><g class="xtick"><text text-anchor="middle" x="0" y="277" style="font-family: 'Lucida Grande', 'Open Sans', verdana, arial, sans-serif; font-size: 10px; fill: rgb(0, 0, 0); fill-opacity: 1; white-space: pre;" transform="translate(544.14,0)">140 bp</text></g></g><g class="yaxislayer-above"><g class="ytick"><text text-anchor="end" x="54" y="3.5" transform="translate(0,261)" style="font-family: 'Lucida Grande', 'Open Sans', verdana, arial, sans-serif; font-size: 10px; fill: rgb(0, 0, 0); fill-opacity: 1; white-space: pre;">0</text></g><g class="ytick"><text text-anchor="end" x="54" y="3.5" style="font-family: 'Lucida Grande', 'Open Sans', verdana, arial, sans-serif; font-size: 10px; fill: rgb(0, 0, 0); fill-opacity: 1; white-space: pre;" transform="translate(0,182.3)">0.5M</text></g><g class="ytick"><text text-anchor="end" x="54" y="3.5" style="font-family: 'Lucida Grande', 'Open Sans', verdana, arial, sans-serif; font-size: 10px; fill: rgb(0, 0, 0); fill-opacity: 1; white-space: pre;" transform="translate(0,103.61)">1M</text></g></g><g class="overaxes-above"/></g></g><g class="polarlayer"/><g class="smithlayer"/><g class="ternarylayer"/><g class="geolayer"/><g class="funnelarealayer"/><g class="pielayer"/><g class="iciclelayer"/><g class="treemaplayer"/><g class="sunburstlayer"/><g class="glimages"/><defs id="topdefs-bd396b"><g class="clips"/><clipPath id="legendbd396b"><rect width="765" height="305" x="0" y="0"/></clipPath></defs><g class="layer-above"><g class="imagelayer"/><g class="shapelayer"/></g><g class="infolayer"><g class="legend" pointer-events="all" transform="translate(-62.5,292.65)"><rect class="bg" shape-rendering="crispEdges" width="765" height="305" x="0" y="0" style="stroke: rgb(68, 68, 68); stroke-opacity: 1; fill: rgb(255, 255, 255); fill-opacity: 1; stroke-width: 0px;"/><g class="scrollbox" transform="" clip-path="url(#legendbd396b)"><g class="groups"><g class="traces" transform="translate(0,14.5)" style="opacity: 1;"><text class="legendtext" text-anchor="start" x="40" y="4.680000000000001" style="font-family: 'Lucida Grande', 'Open Sans', verdana, arial, sans-serif; font-size: 12px; fill: rgb(68, 68, 68); fill-opacity: 1; white-space: pre;">/ | beegfs | scratch | ric.sessa | kubacki.michal | SRF_Eva | results | 02_trimmed | IggMs_R1_001.fastq.gz - Adapter 1</text><g class="layers" style="opacity: 1;"><g class="legendfill"/><g class="legendlines"><path class="js-line" d="M5,0h30" style="fill: none; stroke: rgb(124, 181, 236); stroke-opacity: 1; stroke-width: 2px;"/></g><g class="legendsymbols"><g class="legendpoints"/></g></g><rect class="legendtoggle" x="0" y="-9.5" width="739.0625" height="19" style="fill: rgb(0, 0, 0); fill-opacity: 0;"/></g><g class="traces" transform="translate(0,33.5)" style="opacity: 1;"><text class="legendtext" text-anchor="start" x="40" y="4.680000000000001" style="font-family: 'Lucida Grande', 'Open Sans', verdana, arial, sans-serif; font-size: 12px; fill: rgb(68, 68, 68); fill-opacity: 1; white-space: pre;">/ | beegfs | scratch | ric.sessa | kubacki.michal | SRF_Eva | results | 02_trimmed | IggMs_R2_001.fastq.gz - Adapter 1</text><g class="layers" style="opacity: 1;"><g class="legendfill"/><g class="legendlines"><path class="js-line" d="M5,0h30" style="fill: none; stroke: rgb(67, 67, 72); stroke-opacity: 1; stroke-width: 2px;"/></g><g class="legendsymbols"><g class="legendpoints"/></g></g><rect class="legendtoggle" x="0" y="-9.5" width="739.0625" height="19" style="fill: rgb(0, 0, 0); fill-opacity: 0;"/></g><g class="traces" transform="translate(0,52.5)" style="opacity: 1;"><text class="legendtext" text-anchor="start" x="40" y="4.680000000000001" style="font-family: 'Lucida Grande', 'Open Sans', verdana, arial, sans-serif; font-size: 12px; fill: rgb(68, 68, 68); fill-opacity: 1; white-space: pre;">/ | beegfs | scratch | ric.sessa | kubacki.michal | SRF_Eva | results | 02_trimmed | IggRb_R1_001.fastq.gz - Adapter 1</text><g class="layers" style="opacity: 1;"><g class="legendfill"/><g class="legendlines"><path class="js-line" d="M5,0h30" style="fill: none; stroke: rgb(144, 237, 125); stroke-opacity: 1; stroke-width: 2px;"/></g><g class="legendsymbols"><g class="legendpoints"/></g></g><rect class="legendtoggle" x="0" y="-9.5" width="738.421875" height="19" style="fill: rgb(0, 0, 0); fill-opacity: 0;"/></g><g class="traces" transform="translate(0,71.5)" style="opacity: 1;"><text class="legendtext" text-anchor="start" x="40" y="4.680000000000001" style="font-family: 'Lucida Grande', 'Open Sans', verdana, arial, sans-serif; font-size: 12px; fill: rgb(68, 68, 68); fill-opacity: 1; white-space: pre;">/ | beegfs | scratch | ric.sessa | kubacki.michal | SRF_Eva | results | 02_trimmed | IggRb_R2_001.fastq.gz - Adapter 1</text><g class="layers" style="opacity: 1;"><g class="legendfill"/><g class="legendlines"><path class="js-line" d="M5,0h30" style="fill: none; stroke: rgb(247, 163, 92); stroke-opacity: 1; stroke-width: 2px;"/></g><g class="legendsymbols"><g class="legendpoints"/></g></g><rect class="legendtoggle" x="0" y="-9.5" width="738.421875" height="19" style="fill: rgb(0, 0, 0); fill-opacity: 0;"/></g><g class="traces" transform="translate(0,90.5)" style="opacity: 1;"><text class="legendtext" text-anchor="start" x="40" y="4.680000000000001" style="font-family: 'Lucida Grande', 'Open Sans', verdana, arial, sans-serif; font-size: 12px; fill: rgb(68, 68, 68); fill-opacity: 1; white-space: pre;">/ | beegfs | scratch | ric.sessa | kubacki.michal | SRF_Eva | results | 02_trimmed | TEAD1-1_R1_001.fastq.gz - Adapter 1</text><g class="layers" style="opacity: 1;"><g class="legendfill"/><g class="legendlines"><path class="js-line" d="M5,0h30" style="fill: none; stroke: rgb(128, 133, 233); stroke-opacity: 1; stroke-width: 2px;"/></g><g class="legendsymbols"><g class="legendpoints"/></g></g><rect class="legendtoggle" x="0" y="-9.5" width="755.65625" height="19" style="fill: rgb(0, 0, 0); fill-opacity: 0;"/></g><g class="traces" transform="translate(0,109.5)" style="opacity: 1;"><text class="legendtext" text-anchor="start" x="40" y="4.680000000000001" style="font-family: 'Lucida Grande', 'Open Sans', verdana, arial, sans-serif; font-size: 12px; fill: rgb(68, 68, 68); fill-opacity: 1; white-space: pre;">/ | beegfs | scratch | ric.sessa | kubacki.michal | SRF_Eva | results | 02_trimmed | TEAD1-1_R2_001.fastq.gz - Adapter 1</text><g class="layers" style="opacity: 1;"><g class="legendfill"/><g class="legendlines"><path class="js-line" d="M5,0h30" style="fill: none; stroke: rgb(241, 92, 128); stroke-opacity: 1; stroke-width: 2px;"/></g><g class="legendsymbols"><g class="legendpoints"/></g></g><rect class="legendtoggle" x="0" y="-9.5" width="755.65625" height="19" style="fill: rgb(0, 0, 0); fill-opacity: 0;"/></g><g class="traces" transform="translate(0,128.5)" style="opacity: 1;"><text class="legendtext" text-anchor="start" x="40" y="4.680000000000001" style="font-family: 'Lucida Grande', 'Open Sans', verdana, arial, sans-serif; font-size: 12px; fill: rgb(68, 68, 68); fill-opacity: 1; white-space: pre;">/ | beegfs | scratch | ric.sessa | kubacki.michal | SRF_Eva | results | 02_trimmed | TEAD1-2_R1_001.fastq.gz - Adapter 1</text><g class="layers" style="opacity: 1;"><g class="legendfill"/><g class="legendlines"><path class="js-line" d="M5,0h30" style="fill: none; stroke: rgb(228, 211, 84); stroke-opacity: 1; stroke-width: 2px;"/></g><g class="legendsymbols"><g class="legendpoints"/></g></g><rect class="legendtoggle" x="0" y="-9.5" width="755.65625" height="19" style="fill: rgb(0, 0, 0); fill-opacity: 0;"/></g><g class="traces" transform="translate(0,147.5)" style="opacity: 1;"><text class="legendtext" text-anchor="start" x="40" y="4.680000000000001" style="font-family: 'Lucida Grande', 'Open Sans', verdana, arial, sans-serif; font-size: 12px; fill: rgb(68, 68, 68); fill-opacity: 1; white-space: pre;">/ | beegfs | scratch | ric.sessa | kubacki.michal | SRF_Eva | results | 02_trimmed | TEAD1-2_R2_001.fastq.gz - Adapter 1</text><g class="layers" style="opacity: 1;"><g class="legendfill"/><g class="legendlines"><path class="js-line" d="M5,0h30" style="fill: none; stroke: rgb(43, 144, 143); stroke-opacity: 1; stroke-width: 2px;"/></g><g class="legendsymbols"><g class="legendpoints"/></g></g><rect class="legendtoggle" x="0" y="-9.5" width="755.65625" height="19" style="fill: rgb(0, 0, 0); fill-opacity: 0;"/></g><g class="traces" transform="translate(0,166.5)" style="opacity: 1;"><text class="legendtext" text-anchor="start" x="40" y="4.680000000000001" style="font-family: 'Lucida Grande', 'Open Sans', verdana, arial, sans-serif; font-size: 12px; fill: rgb(68, 68, 68); fill-opacity: 1; white-space: pre;">/ | beegfs | scratch | ric.sessa | kubacki.michal | SRF_Eva | results | 02_trimmed | TEAD1-3_R1_001.fastq.gz - Adapter 1</text><g class="layers" style="opacity: 1;"><g class="legendfill"/><g class="legendlines"><path class="js-line" d="M5,0h30" style="fill: none; stroke: rgb(244, 91, 91); stroke-opacity: 1; stroke-width: 2px;"/></g><g class="legendsymbols"><g class="legendpoints"/></g></g><rect class="legendtoggle" x="0" y="-9.5" width="755.65625" height="19" style="fill: rgb(0, 0, 0); fill-opacity: 0;"/></g><g class="traces" transform="translate(0,185.5)" style="opacity: 1;"><text class="legendtext" text-anchor="start" x="40" y="4.680000000000001" style="font-family: 'Lucida Grande', 'Open Sans', verdana, arial, sans-serif; font-size: 12px; fill: rgb(68, 68, 68); fill-opacity: 1; white-space: pre;">/ | beegfs | scratch | ric.sessa | kubacki.michal | SRF_Eva | results | 02_trimmed | TEAD1-3_R2_001.fastq.gz - Adapter 1</text><g class="layers" style="opacity: 1;"><g class="legendfill"/><g class="legendlines"><path class="js-line" d="M5,0h30" style="fill: none; stroke: rgb(145, 232, 225); stroke-opacity: 1; stroke-width: 2px;"/></g><g class="legendsymbols"><g class="legendpoints"/></g></g><rect class="legendtoggle" x="0" y="-9.5" width="755.65625" height="19" style="fill: rgb(0, 0, 0); fill-opacity: 0;"/></g><g class="traces" transform="translate(0,204.5)" style="opacity: 1;"><text class="legendtext" text-anchor="start" x="40" y="4.680000000000001" style="font-family: 'Lucida Grande', 'Open Sans', verdana, arial, sans-serif; font-size: 12px; fill: rgb(68, 68, 68); fill-opacity: 1; white-space: pre;">/ | beegfs | scratch | ric.sessa | kubacki.michal | SRF_Eva | results | 02_trimmed | TES-1_R1_001.fastq.gz - Adapter 1</text><g class="layers" style="opacity: 1;"><g class="legendfill"/><g class="legendlines"><path class="js-line" d="M5,0h30" style="fill: none; stroke: rgb(124, 181, 236); stroke-opacity: 1; stroke-width: 2px;"/></g><g class="legendsymbols"><g class="legendpoints"/></g></g><rect class="legendtoggle" x="0" y="-9.5" width="738.1875" height="19" style="fill: rgb(0, 0, 0); fill-opacity: 0;"/></g><g class="traces" transform="translate(0,223.5)" style="opacity: 1;"><text class="legendtext" text-anchor="start" x="40" y="4.680000000000001" style="font-family: 'Lucida Grande', 'Open Sans', verdana, arial, sans-serif; font-size: 12px; fill: rgb(68, 68, 68); fill-opacity: 1; white-space: pre;">/ | beegfs | scratch | ric.sessa | kubacki.michal | SRF_Eva | results | 02_trimmed | TES-1_R2_001.fastq.gz - Adapter 1</text><g class="layers" style="opacity: 1;"><g class="legendfill"/><g class="legendlines"><path class="js-line" d="M5,0h30" style="fill: none; stroke: rgb(67, 67, 72); stroke-opacity: 1; stroke-width: 2px;"/></g><g class="legendsymbols"><g class="legendpoints"/></g></g><rect class="legendtoggle" x="0" y="-9.5" width="738.1875" height="19" style="fill: rgb(0, 0, 0); fill-opacity: 0;"/></g><g class="traces" transform="translate(0,242.5)" style="opacity: 1;"><text class="legendtext" text-anchor="start" x="40" y="4.680000000000001" style="font-family: 'Lucida Grande', 'Open Sans', verdana, arial, sans-serif; font-size: 12px; fill: rgb(68, 68, 68); fill-opacity: 1; white-space: pre;">/ | beegfs | scratch | ric.sessa | kubacki.michal | SRF_Eva | results | 02_trimmed | TES-2_R1_001.fastq.gz - Adapter 1</text><g class="layers" style="opacity: 1;"><g class="legendfill"/><g class="legendlines"><path class="js-line" d="M5,0h30" style="fill: none; stroke: rgb(144, 237, 125); stroke-opacity: 1; stroke-width: 2px;"/></g><g class="legendsymbols"><g class="legendpoints"/></g></g><rect class="legendtoggle" x="0" y="-9.5" width="738.1875" height="19" style="fill: rgb(0, 0, 0); fill-opacity: 0;"/></g><g class="traces" transform="translate(0,261.5)" style="opacity: 1;"><text class="legendtext" text-anchor="start" x="40" y="4.680000000000001" style="font-family: 'Lucida Grande', 'Open Sans', verdana, arial, sans-serif; font-size: 12px; fill: rgb(68, 68, 68); fill-opacity: 1; white-space: pre;">/ | beegfs | scratch | ric.sessa | kubacki.michal | SRF_Eva | results | 02_trimmed | TES-2_R2_001.fastq.gz - Adapter 1</text><g class="layers" style="opacity: 1;"><g class="legendfill"/><g class="legendlines"><path class="js-line" d="M5,0h30" style="fill: none; stroke: rgb(247, 163, 92); stroke-opacity: 1; stroke-width: 2px;"/></g><g class="legendsymbols"><g class="legendpoints"/></g></g><rect class="legendtoggle" x="0" y="-9.5" width="738.1875" height="19" style="fill: rgb(0, 0, 0); fill-opacity: 0;"/></g><g class="traces" transform="translate(0,280.5)" style="opacity: 1;"><text class="legendtext" text-anchor="start" x="40" y="4.680000000000001" style="font-family: 'Lucida Grande', 'Open Sans', verdana, arial, sans-serif; font-size: 12px; fill: rgb(68, 68, 68); fill-opacity: 1; white-space: pre;">/ | beegfs | scratch | ric.sessa | kubacki.michal | SRF_Eva | results | 02_trimmed | TES-3_R1_001.fastq.gz - Adapter 1</text><g class="layers" style="opacity: 1;"><g class="legendfill"/><g class="legendlines"><path class="js-line" d="M5,0h30" style="fill: none; stroke: rgb(128, 133, 233); stroke-opacity: 1; stroke-width: 2px;"/></g><g class="legendsymbols"><g class="legendpoints"/></g></g><rect class="legendtoggle" x="0" y="-9.5" width="738.1875" height="19" style="fill: rgb(0, 0, 0); fill-opacity: 0;"/></g><g class="traces" transform="translate(0,299.5)" style="opacity: 1;"><text class="legendtext" text-anchor="start" x="40" y="4.680000000000001" style="font-family: 'Lucida Grande', 'Open Sans', verdana, arial, sans-serif; font-size: 12px; fill: rgb(68, 68, 68); fill-opacity: 1; white-space: pre;">/ | beegfs | scratch | ric.sessa | kubacki.michal | SRF_Eva | results | 02_trimmed | TES-3_R2_001.fastq.gz - Adapter 1</text><g class="layers" style="opacity: 1;"><g class="legendfill"/><g class="legendlines"><path class="js-line" d="M5,0h30" style="fill: none; stroke: rgb(241, 92, 128); stroke-opacity: 1; stroke-width: 2px;"/></g><g class="legendsymbols"><g class="legendpoints"/></g></g><rect class="legendtoggle" x="0" y="-9.5" width="738.1875" height="19" style="fill: rgb(0, 0, 0); fill-opacity: 0;"/></g><g class="traces" transform="translate(0,318.5)" style="opacity: 1;"><text class="legendtext" text-anchor="start" x="40" y="4.680000000000001" style="font-family: 'Lucida Grande', 'Open Sans', verdana, arial, sans-serif; font-size: 12px; fill: rgb(68, 68, 68); fill-opacity: 1; white-space: pre;">/ | beegfs | scratch | ric.sessa | kubacki.michal | SRF_Eva | results | 02_trimmed | TESmut-1_R1_001.fastq.gz - Adapter 1</text><g class="layers" style="opacity: 1;"><g class="legendfill"/><g class="legendlines"><path class="js-line" d="M5,0h30" style="fill: none; stroke: rgb(228, 211, 84); stroke-opacity: 1; stroke-width: 2px;"/></g><g class="legendsymbols"><g class="legendpoints"/></g></g><rect class="legendtoggle" x="0" y="-9.5" width="762.1875" height="19" style="fill: rgb(0, 0, 0); fill-opacity: 0;"/></g><g class="traces" transform="translate(0,337.5)" style="opacity: 1;"><text class="legendtext" text-anchor="start" x="40" y="4.680000000000001" style="font-family: 'Lucida Grande', 'Open Sans', verdana, arial, sans-serif; font-size: 12px; fill: rgb(68, 68, 68); fill-opacity: 1; white-space: pre;">/ | beegfs | scratch | ric.sessa | kubacki.michal | SRF_Eva | results | 02_trimmed | TESmut-1_R2_001.fastq.gz - Adapter 1</text><g class="layers" style="opacity: 1;"><g class="legendfill"/><g class="legendlines"><path class="js-line" d="M5,0h30" style="fill: none; stroke: rgb(43, 144, 143); stroke-opacity: 1; stroke-width: 2px;"/></g><g class="legendsymbols"><g class="legendpoints"/></g></g><rect class="legendtoggle" x="0" y="-9.5" width="762.1875" height="19" style="fill: rgb(0, 0, 0); fill-opacity: 0;"/></g><g class="traces" transform="translate(0,356.5)" style="opacity: 1;"><text class="legendtext" text-anchor="start" x="40" y="4.680000000000001" style="font-family: 'Lucida Grande', 'Open Sans', verdana, arial, sans-serif; font-size: 12px; fill: rgb(68, 68, 68); fill-opacity: 1; white-space: pre;">/ | beegfs | scratch | ric.sessa | kubacki.michal | SRF_Eva | results | 02_trimmed | TESmut-2_R1_001.fastq.gz - Adapter 1</text><g class="layers" style="opacity: 1;"><g class="legendfill"/><g class="legendlines"><path class="js-line" d="M5,0h30" style="fill: none; stroke: rgb(244, 91, 91); stroke-opacity: 1; stroke-width: 2px;"/></g><g class="legendsymbols"><g class="legendpoints"/></g></g><rect class="legendtoggle" x="0" y="-9.5" width="762.1875" height="19" style="fill: rgb(0, 0, 0); fill-opacity: 0;"/></g><g class="traces" transform="translate(0,375.5)" style="opacity: 1;"><text class="legendtext" text-anchor="start" x="40" y="4.680000000000001" style="font-family: 'Lucida Grande', 'Open Sans', verdana, arial, sans-serif; font-size: 12px; fill: rgb(68, 68, 68); fill-opacity: 1; white-space: pre;">/ | beegfs | scratch | ric.sessa | kubacki.michal | SRF_Eva | results | 02_trimmed | TESmut-2_R2_001.fastq.gz - Adapter 1</text><g class="layers" style="opacity: 1;"><g class="legendfill"/><g class="legendlines"><path class="js-line" d="M5,0h30" style="fill: none; stroke: rgb(145, 232, 225); stroke-opacity: 1; stroke-width: 2px;"/></g><g class="legendsymbols"><g class="legendpoints"/></g></g><rect class="legendtoggle" x="0" y="-9.5" width="762.1875" height="19" style="fill: rgb(0, 0, 0); fill-opacity: 0;"/></g><g class="traces" transform="translate(0,394.5)" style="opacity: 1;"><text class="legendtext" text-anchor="start" x="40" y="4.680000000000001" style="font-family: 'Lucida Grande', 'Open Sans', verdana, arial, sans-serif; font-size: 12px; fill: rgb(68, 68, 68); fill-opacity: 1; white-space: pre;">/ | beegfs | scratch | ric.sessa | kubacki.michal | SRF_Eva | results | 02_trimmed | TESmut-3_R1_001.fastq.gz - Adapter 1</text><g class="layers" style="opacity: 1;"><g class="legendfill"/><g class="legendlines"><path class="js-line" d="M5,0h30" style="fill: none; stroke: rgb(124, 181, 236); stroke-opacity: 1; stroke-width: 2px;"/></g><g class="legendsymbols"><g class="legendpoints"/></g></g><rect class="legendtoggle" x="0" y="-9.5" width="762.1875" height="19" style="fill: rgb(0, 0, 0); fill-opacity: 0;"/></g><g class="traces" transform="translate(0,413.5)" style="opacity: 1;"><text class="legendtext" text-anchor="start" x="40" y="4.680000000000001" style="font-family: 'Lucida Grande', 'Open Sans', verdana, arial, sans-serif; font-size: 12px; fill: rgb(68, 68, 68); fill-opacity: 1; white-space: pre;">/ | beegfs | scratch | ric.sessa | kubacki.michal | SRF_Eva | results | 02_trimmed | TESmut-3_R2_001.fastq.gz - Adapter 1</text><g class="layers" style="opacity: 1;"><g class="legendfill"/><g class="legendlines"><path class="js-line" d="M5,0h30" style="fill: none; stroke: rgb(67, 67, 72); stroke-opacity: 1; stroke-width: 2px;"/></g><g class="legendsymbols"><g class="legendpoints"/></g></g><rect class="legendtoggle" x="0" y="-9.5" width="762.1875" height="19" style="fill: rgb(0, 0, 0); fill-opacity: 0;"/></g></g></g><rect class="scrollbar" rx="20" ry="3" width="0" height="0" x="0" y="0" style="fill: rgb(128, 139, 164); fill-opacity: 1;"/></g><g class="g-gtitle"><text class="gtitle" x="300" y="25" text-anchor="middle" dy="0em" style="opacity: 1; font-family: 'Lucida Grande', 'Open Sans', verdana, arial, sans-serif; font-size: 20px; fill: rgb(68, 68, 68); fill-opacity: 1; white-space: pre;"><tspan class="line" dy="0em" x="300" y="25">Cutadapt: Lengths of Trimmed Sequences (3' end)</tspan><tspan class="line" dy="1.3em" x="300" y="25"><tspan style="font-size:70%" dy="-0.6em">Obs/Exp, 22 samples</tspan><tspan dy="0.42em"></tspan></tspan></text></g><g class="g-xtitle"><text class="xtitle" x="320" y="313" text-anchor="middle" style="opacity: 0.3; font-family: 'Lucida Grande', 'Open Sans', verdana, arial, sans-serif; font-size: 14px; fill: rgb(0, 0, 0); fill-opacity: 1; white-space: pre;">Length Trimmed (bp)</text></g><g class="g-ytitle"><text class="ytitle" transform="rotate(-90,22,155.5)" x="22" y="155.5" text-anchor="middle" style="opacity: 0.3; font-family: 'Lucida Grande', 'Open Sans', verdana, arial, sans-serif; font-size: 14px; fill: rgb(0, 0, 0); fill-opacity: 1; white-space: pre;">Observed / Expected</text></g></g></svg>