<svg class="main-svg" xmlns="http://www.w3.org/2000/svg" xmlns:xlink="http://www.w3.org/1999/xlink" width="1200" height="1000" style="" viewBox="0 0 600 500"><rect x="0" y="0" width="600" height="500" style="fill: rgb(255, 255, 255); fill-opacity: 1;"/><defs id="defs-42345e"><g class="clips"><clipPath id="clip42345exyplot" class="plotclip"><rect width="509" height="385"/></clipPath><clipPath class="axesclip" id="clip42345ex"><rect x="61" y="0" width="509" height="500"/></clipPath><clipPath class="axesclip" id="clip42345ey"><rect x="0" y="50" width="600" height="385"/></clipPath><clipPath class="axesclip" id="clip42345exy"><rect x="61" y="50" width="509" height="385"/></clipPath></g><g class="gradients"/><g class="patterns"/></defs><g class="bglayer"/><g class="layer-below"><g class="imagelayer"/><g class="shapelayer"/></g><g class="cartesianlayer"><g class="subplot xy"><g class="layer-subplot"><g class="shapelayer"/><g class="imagelayer"/></g><g class="minor-gridlayer"><g class="x"/><g class="y"/></g><g class="gridlayer"><g class="x"><path class="xgrid crisp" transform="translate(94.93,0)" d="M0,50v385" style="stroke: rgb(0, 0, 0); stroke-opacity: 0.05; stroke-width: 1px;"/><path class="xgrid crisp" transform="translate(128.87,0)" d="M0,50v385" style="stroke: rgb(0, 0, 0); stroke-opacity: 0.05; stroke-width: 1px;"/><path class="xgrid crisp" transform="translate(162.8,0)" d="M0,50v385" style="stroke: rgb(0, 0, 0); stroke-opacity: 0.05; stroke-width: 1px;"/><path class="xgrid crisp" transform="translate(196.73,0)" d="M0,50v385" style="stroke: rgb(0, 0, 0); stroke-opacity: 0.05; stroke-width: 1px;"/><path class="xgrid crisp" transform="translate(230.67,0)" d="M0,50v385" style="stroke: rgb(0, 0, 0); stroke-opacity: 0.05; stroke-width: 1px;"/><path class="xgrid crisp" transform="translate(264.6,0)" d="M0,50v385" style="stroke: rgb(0, 0, 0); stroke-opacity: 0.05; stroke-width: 1px;"/><path class="xgrid crisp" transform="translate(298.53,0)" d="M0,50v385" style="stroke: rgb(0, 0, 0); stroke-opacity: 0.05; stroke-width: 1px;"/><path class="xgrid crisp" transform="translate(332.47,0)" d="M0,50v385" style="stroke: rgb(0, 0, 0); stroke-opacity: 0.05; stroke-width: 1px;"/><path class="xgrid crisp" transform="translate(366.4,0)" d="M0,50v385" style="stroke: rgb(0, 0, 0); stroke-opacity: 0.05; stroke-width: 1px;"/><path class="xgrid crisp" transform="translate(400.33,0)" d="M0,50v385" style="stroke: rgb(0, 0, 0); stroke-opacity: 0.05; stroke-width: 1px;"/><path class="xgrid crisp" transform="translate(434.27,0)" d="M0,50v385" style="stroke: rgb(0, 0, 0); stroke-opacity: 0.05; stroke-width: 1px;"/><path class="xgrid crisp" transform="translate(468.2,0)" d="M0,50v385" style="stroke: rgb(0, 0, 0); stroke-opacity: 0.05; stroke-width: 1px;"/><path class="xgrid crisp" transform="translate(502.13,0)" d="M0,50v385" style="stroke: rgb(0, 0, 0); stroke-opacity: 0.05; stroke-width: 1px;"/><path class="xgrid crisp" transform="translate(536.0699999999999,0)" d="M0,50v385" style="stroke: rgb(0, 0, 0); stroke-opacity: 0.05; stroke-width: 1px;"/></g><g class="y"><path class="ygrid crisp" transform="translate(0,358)" d="M61,0h509" style="stroke: rgb(0, 0, 0); stroke-opacity: 0.05; stroke-width: 1px;"/><path class="ygrid crisp" transform="translate(0,281)" d="M61,0h509" style="stroke: rgb(0, 0, 0); stroke-opacity: 0.05; stroke-width: 1px;"/><path class="ygrid crisp" transform="translate(0,204)" d="M61,0h509" style="stroke: rgb(0, 0, 0); stroke-opacity: 0.05; stroke-width: 1px;"/><path class="ygrid crisp" transform="translate(0,127)" d="M61,0h509" style="stroke: rgb(0, 0, 0); stroke-opacity: 0.05; stroke-width: 1px;"/></g></g><g class="zerolinelayer"><path class="yzl zl crisp" transform="translate(0,435)" d="M61,0h509" style="stroke: rgb(0, 0, 0); stroke-opacity: 0.05; stroke-width: 1px;"/></g><g class="layer-between"><g class="shapelayer"/><g class="imagelayer"/></g><path class="xlines-below"/><path class="ylines-below"/><g class="overlines-below"/><g class="xaxislayer-below"/><g class="yaxislayer-below"/><g class="overaxes-below"/><g class="overplot"><g class="xy" transform="translate(61,50)" clip-path="url(#clip42345exyplot)"><g class="scatterlayer mlayer"><g class="trace scatter trace03ea01" style="stroke-miterlimit: 2; opacity: 1;"><g class="fills"/><g class="errorbars"/><g class="lines"><path class="js-line" d="M0,366.87L33.93,377.05L67.87,375.52L135.73,373.79L169.67,374.03L237.53,375.34L271.47,376.79L305.4,266.74L339.33,333.64L373.27,302.24L407.2,369.95L441.13,367.97L475.07,382.36L509,383.43" style="vector-effect: none; fill: none; stroke: rgb(217, 83, 79); stroke-opacity: 1; stroke-width: 2px; opacity: 1;"/></g><g class="points"/><g class="text"/></g><g class="trace scatter trace25e9c0" style="stroke-miterlimit: 2; opacity: 1;"><g class="fills"/><g class="errorbars"/><g class="lines"><path class="js-line" d="M0,369.95L33.93,377.73L67.87,375.97L101.8,374.46L135.73,373.79L237.53,375.33L271.47,376.36L305.4,264.88L339.33,332.59L373.27,302.63L407.2,369.83L441.13,367.71L475.07,382.34L509,383" style="vector-effect: none; fill: none; stroke: rgb(217, 83, 79); stroke-opacity: 1; stroke-width: 2px; opacity: 1;"/></g><g class="points"/><g class="text"/></g><g class="trace scatter trace908054" style="stroke-miterlimit: 2; opacity: 1;"><g class="fills"/><g class="errorbars"/><g class="lines"><path class="js-line" d="M0,368.64L33.93,381.5L67.87,381.87L237.53,379.64L271.47,379.21L305.4,196.14L339.33,340.88L373.27,324.46L407.2,372.1L441.13,363.24L475.07,380.46L509,383.54" style="vector-effect: none; fill: none; stroke: rgb(217, 83, 79); stroke-opacity: 1; stroke-width: 2px; opacity: 1;"/></g><g class="points"/><g class="text"/></g><g class="trace scatter trace99d726" style="stroke-miterlimit: 2; opacity: 1;"><g class="fills"/><g class="errorbars"/><g class="lines"><path class="js-line" d="M0,371.09L33.93,382.12L67.87,382.06L271.47,379.42L305.4,193.05L339.33,340.73L373.27,324.54L407.2,371.85L441.13,363.05L475.07,380.73L509,383.06" style="vector-effect: none; fill: none; stroke: rgb(217, 83, 79); stroke-opacity: 1; stroke-width: 2px; opacity: 1;"/></g><g class="points"/><g class="text"/></g><g class="trace scatter trace7e22a2" style="stroke-miterlimit: 2; opacity: 1;"><g class="fills"/><g class="errorbars"/><g class="lines"><path class="js-line" d="M0,371.9L33.93,382.15L67.87,383.26L169.67,383.89L203.6,383.85L271.47,383.8L305.4,315.36L339.33,308.53L373.27,262.44L407.2,350.71L441.13,348.75L475.07,375.35L509,373.87" style="vector-effect: none; fill: none; stroke: rgb(217, 83, 79); stroke-opacity: 1; stroke-width: 2px; opacity: 1;"/></g><g class="points"/><g class="text"/></g><g class="trace scatter trace4d81e6" style="stroke-miterlimit: 2; opacity: 1;"><g class="fills"/><g class="errorbars"/><g class="lines"><path class="js-line" d="M0,372.87L33.93,383.37L67.87,383.91L271.47,383.78L305.4,314.38L339.33,307.97L373.27,261.19L407.2,350.56L441.13,348.36L475.07,375.4L509,373.61" style="vector-effect: none; fill: none; stroke: rgb(217, 83, 79); stroke-opacity: 1; stroke-width: 2px; opacity: 1;"/></g><g class="points"/><g class="text"/></g><g class="trace scatter trace52a535" style="stroke-miterlimit: 2; opacity: 1;"><g class="fills"/><g class="errorbars"/><g class="lines"><path class="js-line" d="M0,369.4L33.93,380.48L67.87,380.57L237.53,376.96L271.47,376.97L305.4,242.85L339.33,326.78L373.27,296.55L407.2,371.39L441.13,372.22L475.07,382.61L509,383.54" style="vector-effect: none; fill: none; stroke: rgb(217, 83, 79); stroke-opacity: 1; stroke-width: 2px; opacity: 1;"/></g><g class="points"/><g class="text"/></g><g class="trace scatter trace7ac3da" style="stroke-miterlimit: 2; opacity: 1;"><g class="fills"/><g class="errorbars"/><g class="lines"><path class="js-line" d="M0,372.41L33.93,381.29L67.87,380.84L169.67,378.29L203.6,377.61L271.47,376.69L305.4,240.64L339.33,325.94L373.27,296.67L407.2,371.05L441.13,372.12L475.07,382.77L509,383.14" style="vector-effect: none; fill: none; stroke: rgb(217, 83, 79); stroke-opacity: 1; stroke-width: 2px; opacity: 1;"/></g><g class="points"/><g class="text"/></g><g class="trace scatter trace1d27f1" style="stroke-miterlimit: 2; opacity: 1;"><g class="fills"/><g class="errorbars"/><g class="lines"><path class="js-line" d="M0,369.59L33.93,381.85L67.87,382.49L237.53,381.48L271.47,381.19L305.4,213.8L339.33,324.14L373.27,303.33L407.2,371.91L441.13,369.92L475.07,383.08L509,383.7" style="vector-effect: none; fill: none; stroke: rgb(217, 83, 79); stroke-opacity: 1; stroke-width: 2px; opacity: 1;"/></g><g class="points"/><g class="text"/></g><g class="trace scatter trace736015" style="stroke-miterlimit: 2; opacity: 1;"><g class="fills"/><g class="errorbars"/><g class="lines"><path class="js-line" d="M0,371.55L33.93,382.55L67.87,382.75L271.47,381.33L305.4,212.07L339.33,323.17L373.27,303.01L407.2,372.06L441.13,369.77L475.07,383.04L509,383.53" style="vector-effect: none; fill: none; stroke: rgb(217, 83, 79); stroke-opacity: 1; stroke-width: 2px; opacity: 1;"/></g><g class="points"/><g class="text"/></g><g class="trace scatter trace280863" style="stroke-miterlimit: 2; opacity: 1;"><g class="fills"/><g class="errorbars"/><g class="lines"><path class="js-line" d="M0,327.07L33.93,343.48L67.87,352.16L135.73,364.88L169.67,369.65L203.6,373.02L237.53,375.35L271.47,376.79L305.4,293.04L339.33,360.13L373.27,355.99L407.2,378.52L441.13,376.96L475.07,384.22L509,384.93" style="vector-effect: none; fill: none; stroke: rgb(217, 83, 79); stroke-opacity: 1; stroke-width: 2px; opacity: 1;"/></g><g class="points"/><g class="text"/></g><g class="trace scatter trace7387b4" style="stroke-miterlimit: 2; opacity: 1;"><g class="fills"/><g class="errorbars"/><g class="lines"><path class="js-line" d="M0,329.57L33.93,344.11L67.87,352.09L101.8,358.75L135.73,364.62L169.67,369.61L203.6,372.73L271.47,376.93L305.4,292.05L339.33,359.56L373.27,355.55L407.2,378.42L441.13,377.09L475.07,384.23L509,384.5" style="vector-effect: none; fill: none; stroke: rgb(217, 83, 79); stroke-opacity: 1; stroke-width: 2px; opacity: 1;"/></g><g class="points"/><g class="text"/></g><g class="trace scatter trace6fc3f2" style="stroke-miterlimit: 2; opacity: 1;"><g class="fills"/><g class="errorbars"/><g class="lines"><path class="js-line" d="M0,366.35L33.93,379.52L67.87,379.03L169.67,377.38L203.6,376.95L271.47,376.23L305.4,190.26L339.33,341.76L373.27,331.55L407.2,376.62L441.13,377.98L475.07,383.79L509,384.61" style="vector-effect: none; fill: none; stroke: rgb(217, 83, 79); stroke-opacity: 1; stroke-width: 2px; opacity: 1;"/></g><g class="points"/><g class="text"/></g><g class="trace scatter trace9fdc57" style="stroke-miterlimit: 2; opacity: 1;"><g class="fills"/><g class="errorbars"/><g class="lines"><path class="js-line" d="M0,370.35L33.93,379.91L67.87,379.2L169.67,377.37L203.6,376.9L271.47,376.45L305.4,186.75L339.33,341.68L373.27,330.92L407.2,376.67L441.13,377.88L475.07,383.89L509,384.31" style="vector-effect: none; fill: none; stroke: rgb(217, 83, 79); stroke-opacity: 1; stroke-width: 2px; opacity: 1;"/></g><g class="points"/><g class="text"/></g><g class="trace scatter traceeac15f" style="stroke-miterlimit: 2; opacity: 1;"><g class="fills"/><g class="errorbars"/><g class="lines"><path class="js-line" d="M0,328.12L33.93,344.36L67.87,350.6L135.73,364.49L169.67,369.74L203.6,373.39L237.53,376.11L271.47,377.76L305.4,313.85L339.33,370.26L373.27,363.88L407.2,374.92L441.13,354.69L475.07,375.56L509,379.4" style="vector-effect: none; fill: none; stroke: rgb(217, 83, 79); stroke-opacity: 1; stroke-width: 2px; opacity: 1;"/></g><g class="points"/><g class="text"/></g><g class="trace scatter trace9f002c" style="stroke-miterlimit: 2; opacity: 1;"><g class="fills"/><g class="errorbars"/><g class="lines"><path class="js-line" d="M0,331.47L33.93,344.94L67.87,350.48L135.73,364.51L169.67,369.63L203.6,373.31L237.53,375.54L271.47,377.45L305.4,313.08L339.33,369.98L373.27,363.65L407.2,374.55L441.13,354.18L475.07,375.58L509,379.09" style="vector-effect: none; fill: none; stroke: rgb(217, 83, 79); stroke-opacity: 1; stroke-width: 2px; opacity: 1;"/></g><g class="points"/><g class="text"/></g><g class="trace scatter trace41ea4b" style="stroke-miterlimit: 2; opacity: 1;"><g class="fills"/><g class="errorbars"/><g class="lines"><path class="js-line" d="M0,350.08L33.93,360.34L67.87,360.57L237.53,374.54L271.47,376.16L305.4,291.32L339.33,360.44L373.27,350.36L407.2,371.24L441.13,349.87L475.07,376.58L509,382.06" style="vector-effect: none; fill: none; stroke: rgb(217, 83, 79); stroke-opacity: 1; stroke-width: 2px; opacity: 1;"/></g><g class="points"/><g class="text"/></g><g class="trace scatter tracef40a6d" style="stroke-miterlimit: 2; opacity: 1;"><g class="fills"/><g class="errorbars"/><g class="lines"><path class="js-line" d="M0,352.78L33.93,360.53L67.87,360.84L237.53,374.07L271.47,375.95L305.4,290.15L339.33,360.69L373.27,349.66L407.2,371.13L441.13,349.97L475.07,376.73L509,381.48" style="vector-effect: none; fill: none; stroke: rgb(217, 83, 79); stroke-opacity: 1; stroke-width: 2px; opacity: 1;"/></g><g class="points"/><g class="text"/></g><g class="trace scatter trace6c3b77" style="stroke-miterlimit: 2; opacity: 1;"><g class="fills"/><g class="errorbars"/><g class="lines"><path class="js-line" d="M0,354.69L33.93,364.7L67.87,363.16L101.8,363.72L135.73,365.6L203.6,370.16L237.53,372.31L271.47,374.48L305.4,278.49L339.33,357.81L373.27,347.45L407.2,372.55L441.13,359.17L475.07,380.1L509,383.1" style="vector-effect: none; fill: none; stroke: rgb(217, 83, 79); stroke-opacity: 1; stroke-width: 2px; opacity: 1;"/></g><g class="points"/><g class="text"/></g><g class="trace scatter trace85318b" style="stroke-miterlimit: 2; opacity: 1;"><g class="fills"/><g class="errorbars"/><g class="lines"><path class="js-line" d="M0,357.6L33.93,364.84L67.87,363.44L101.8,363.65L135.73,365.26L237.53,372.13L271.47,374.66L305.4,277.1L339.33,357.3L373.27,347.27L407.2,372.33L441.13,359.16L475.07,379.98L509,382.66" style="vector-effect: none; fill: none; stroke: rgb(217, 83, 79); stroke-opacity: 1; stroke-width: 2px; opacity: 1;"/></g><g class="points"/><g class="text"/></g><g class="trace scatter tracea98cf1" style="stroke-miterlimit: 2; opacity: 1;"><g class="fills"/><g class="errorbars"/><g class="lines"><path class="js-line" d="M0,353.66L33.93,362.79L67.87,361.4L101.8,362.79L135.73,364.98L237.53,373.12L271.47,375.07L305.4,293.68L339.33,363.23L373.27,352.97L407.2,371.96L441.13,348.18L475.07,373.56L509,378.92" style="vector-effect: none; fill: none; stroke: rgb(217, 83, 79); stroke-opacity: 1; stroke-width: 2px; opacity: 1;"/></g><g class="points"/><g class="text"/></g><g class="trace scatter tracefcd4aa" style="stroke-miterlimit: 2; opacity: 1;"><g class="fills"/><g class="errorbars"/><g class="lines"><path class="js-line" d="M0,354.32L33.93,362.99L67.87,361.91L135.73,365.03L169.67,367.74L271.47,375.18L305.4,293.38L339.33,362.99L373.27,353.42L407.2,371.13L441.13,348.12L475.07,373.71L509,378.59" style="vector-effect: none; fill: none; stroke: rgb(217, 83, 79); stroke-opacity: 1; stroke-width: 2px; opacity: 1;"/></g><g class="points"/><g class="text"/></g><g class="trace scatter tracec705fa" style="stroke-miterlimit: 2; opacity: 1;"><g class="fills"/><g class="errorbars"/><g class="lines"><path class="js-line" d="M0,367.01L33.93,377.03L67.87,375.49L135.73,373.73L169.67,373.95L237.53,375.28L271.47,376.71L305.4,266.67L339.33,333.66L373.27,302.43L407.2,370.03L441.13,368.04L475.07,382.39L509,383.43" style="vector-effect: none; fill: none; stroke: rgb(217, 83, 79); stroke-opacity: 1; stroke-width: 2px; opacity: 1;"/></g><g class="points"/><g class="text"/></g><g class="trace scatter trace772c1c" style="stroke-miterlimit: 2; opacity: 1;"><g class="fills"/><g class="errorbars"/><g class="lines"><path class="js-line" d="M0,370.18L33.93,377.69L67.87,375.9L135.73,373.68L169.67,374.03L203.6,374.26L237.53,375.25L271.47,376.28L305.4,264.78L339.33,332.69L373.27,302.75L407.2,369.9L441.13,367.71L475.07,382.37L509,383.1" style="vector-effect: none; fill: none; stroke: rgb(217, 83, 79); stroke-opacity: 1; stroke-width: 2px; opacity: 1;"/></g><g class="points"/><g class="text"/></g><g class="trace scatter trace739425" style="stroke-miterlimit: 2; opacity: 1;"><g class="fills"/><g class="errorbars"/><g class="lines"><path class="js-line" d="M0,368.87L33.93,381.49L67.87,381.87L237.53,379.61L271.47,379.21L305.4,195.83L339.33,340.9L373.27,324.51L407.2,372.12L441.13,363.27L475.07,380.49L509,383.54" style="vector-effect: none; fill: none; stroke: rgb(217, 83, 79); stroke-opacity: 1; stroke-width: 2px; opacity: 1;"/></g><g class="points"/><g class="text"/></g><g class="trace scatter trace98d524" style="stroke-miterlimit: 2; opacity: 1;"><g class="fills"/><g class="errorbars"/><g class="lines"><path class="js-line" d="M0,371.46L33.93,382.1L67.87,382.05L271.47,379.4L305.4,192.72L339.33,340.69L373.27,324.63L407.2,371.85L441.13,363.02L475.07,380.75L509,383.06" style="vector-effect: none; fill: none; stroke: rgb(217, 83, 79); stroke-opacity: 1; stroke-width: 2px; opacity: 1;"/></g><g class="points"/><g class="text"/></g><g class="trace scatter trace028964" style="stroke-miterlimit: 2; opacity: 1;"><g class="fills"/><g class="errorbars"/><g class="lines"><path class="js-line" d="M0,372.09L33.93,382.17L67.87,383.26L169.67,383.9L203.6,383.85L271.47,383.8L305.4,315.11L339.33,308.1L373.27,262.39L407.2,350.77L441.13,348.87L475.07,375.35L509,374.23" style="vector-effect: none; fill: none; stroke: rgb(217, 83, 79); stroke-opacity: 1; stroke-width: 2px; opacity: 1;"/></g><g class="points"/><g class="text"/></g><g class="trace scatter trace2c04dd" style="stroke-miterlimit: 2; opacity: 1;"><g class="fills"/><g class="errorbars"/><g class="lines"><path class="js-line" d="M0,373.24L33.93,383.38L67.87,383.92L271.47,383.78L305.4,314.1L339.33,307.39L373.27,261.13L407.2,350.63L441.13,348.43L475.07,375.4L509,374.01" style="vector-effect: none; fill: none; stroke: rgb(217, 83, 79); stroke-opacity: 1; stroke-width: 2px; opacity: 1;"/></g><g class="points"/><g class="text"/></g><g class="trace scatter trace974cbd" style="stroke-miterlimit: 2; opacity: 1;"><g class="fills"/><g class="errorbars"/><g class="lines"><path class="js-line" d="M0,369.52L33.93,380.49L67.87,380.56L237.53,376.9L271.47,376.92L305.4,242.52L339.33,326.83L373.27,296.74L407.2,371.41L441.13,372.31L475.07,382.64L509,383.61" style="vector-effect: none; fill: none; stroke: rgb(217, 83, 79); stroke-opacity: 1; stroke-width: 2px; opacity: 1;"/></g><g class="points"/><g class="text"/></g><g class="trace scatter trace277cc9" style="stroke-miterlimit: 2; opacity: 1;"><g class="fills"/><g class="errorbars"/><g class="lines"><path class="js-line" d="M0,372.59L33.93,381.28L67.87,380.84L169.67,378.27L203.6,377.59L271.47,376.64L305.4,240.37L339.33,325.96L373.27,296.78L407.2,371.08L441.13,372.15L475.07,382.77L509,383.27" style="vector-effect: none; fill: none; stroke: rgb(217, 83, 79); stroke-opacity: 1; stroke-width: 2px; opacity: 1;"/></g><g class="points"/><g class="text"/></g><g class="trace scatter trace461cf6" style="stroke-miterlimit: 2; opacity: 1;"><g class="fills"/><g class="errorbars"/><g class="lines"><path class="js-line" d="M0,369.77L33.93,381.86L67.87,382.5L271.47,381.15L305.4,213.46L339.33,324.2L373.27,303.35L407.2,371.93L441.13,369.95L475.07,383.08L509,383.78" style="vector-effect: none; fill: none; stroke: rgb(217, 83, 79); stroke-opacity: 1; stroke-width: 2px; opacity: 1;"/></g><g class="points"/><g class="text"/></g><g class="trace scatter trace5362d4" style="stroke-miterlimit: 2; opacity: 1;"><g class="fills"/><g class="errorbars"/><g class="lines"><path class="js-line" d="M0,371.85L33.93,382.54L67.87,382.75L271.47,381.32L305.4,211.66L339.33,323.12L373.27,303.11L407.2,372.05L441.13,369.78L475.07,383.04L509,383.64" style="vector-effect: none; fill: none; stroke: rgb(217, 83, 79); stroke-opacity: 1; stroke-width: 2px; opacity: 1;"/></g><g class="points"/><g class="text"/></g><g class="trace scatter tracead3daa" style="stroke-miterlimit: 2; opacity: 1;"><g class="fills"/><g class="errorbars"/><g class="lines"><path class="js-line" d="M0,327.19L33.93,343.42L67.87,352.08L135.73,364.82L169.67,369.58L203.6,372.98L237.53,375.33L271.47,376.8L305.4,293.15L339.33,360.19L373.27,356L407.2,378.55L441.13,377.01L475.07,384.22L509,384.93" style="vector-effect: none; fill: none; stroke: rgb(217, 83, 79); stroke-opacity: 1; stroke-width: 2px; opacity: 1;"/></g><g class="points"/><g class="text"/></g><g class="trace scatter trace024d95" style="stroke-miterlimit: 2; opacity: 1;"><g class="fills"/><g class="errorbars"/><g class="lines"><path class="js-line" d="M0,329.77L33.93,344L67.87,352L135.73,364.56L169.67,369.59L237.53,375.16L271.47,376.9L305.4,292.16L339.33,359.57L373.27,355.62L407.2,378.41L441.13,377.1L475.07,384.28L509,384.52" style="vector-effect: none; fill: none; stroke: rgb(217, 83, 79); stroke-opacity: 1; stroke-width: 2px; opacity: 1;"/></g><g class="points"/><g class="text"/></g><g class="trace scatter trace4ef5a8" style="stroke-miterlimit: 2; opacity: 1;"><g class="fills"/><g class="errorbars"/><g class="lines"><path class="js-line" d="M0,366.47L33.93,379.52L67.87,379.03L169.67,377.34L203.6,376.94L271.47,376.19L305.4,190.06L339.33,341.76L373.27,331.64L407.2,376.64L441.13,378.01L475.07,383.79L509,384.61" style="vector-effect: none; fill: none; stroke: rgb(217, 83, 79); stroke-opacity: 1; stroke-width: 2px; opacity: 1;"/></g><g class="points"/><g class="text"/></g><g class="trace scatter traceb43b1c" style="stroke-miterlimit: 2; opacity: 1;"><g class="fills"/><g class="errorbars"/><g class="lines"><path class="js-line" d="M0,370.53L33.93,379.9L67.87,379.2L169.67,377.36L203.6,376.88L271.47,376.44L305.4,186.47L339.33,341.74L373.27,331L407.2,376.7L441.13,377.89L475.07,383.89L509,384.31" style="vector-effect: none; fill: none; stroke: rgb(217, 83, 79); stroke-opacity: 1; stroke-width: 2px; opacity: 1;"/></g><g class="points"/><g class="text"/></g><g class="trace scatter trace08985d" style="stroke-miterlimit: 2; opacity: 1;"><g class="fills"/><g class="errorbars"/><g class="lines"><path class="js-line" d="M0,328.23L33.93,344.25L67.87,350.56L135.73,364.42L169.67,369.76L203.6,373.34L237.53,376.11L271.47,377.78L305.4,313.94L339.33,370.32L373.27,363.93L407.2,374.92L441.13,354.76L475.07,375.55L509,379.39" style="vector-effect: none; fill: none; stroke: rgb(217, 83, 79); stroke-opacity: 1; stroke-width: 2px; opacity: 1;"/></g><g class="points"/><g class="text"/></g><g class="trace scatter traceb589a9" style="stroke-miterlimit: 2; opacity: 1;"><g class="fills"/><g class="errorbars"/><g class="lines"><path class="js-line" d="M0,331.66L33.93,344.87L67.87,350.42L135.73,364.4L169.67,369.6L203.6,373.29L237.53,375.53L271.47,377.42L305.4,313.19L339.33,369.99L373.27,363.67L407.2,374.57L441.13,354.2L475.07,375.61L509,379.09" style="vector-effect: none; fill: none; stroke: rgb(217, 83, 79); stroke-opacity: 1; stroke-width: 2px; opacity: 1;"/></g><g class="points"/><g class="text"/></g><g class="trace scatter tracee254b1" style="stroke-miterlimit: 2; opacity: 1;"><g class="fills"/><g class="errorbars"/><g class="lines"><path class="js-line" d="M0,350.22L33.93,360.32L67.87,360.5L237.53,374.52L271.47,376.15L305.4,291.23L339.33,360.51L373.27,350.4L407.2,371.25L441.13,349.88L475.07,376.69L509,382.06" style="vector-effect: none; fill: none; stroke: rgb(217, 83, 79); stroke-opacity: 1; stroke-width: 2px; opacity: 1;"/></g><g class="points"/><g class="text"/></g><g class="trace scatter tracefb416f" style="stroke-miterlimit: 2; opacity: 1;"><g class="fills"/><g class="errorbars"/><g class="lines"><path class="js-line" d="M0,353.02L33.93,360.46L67.87,360.77L237.53,374.08L271.47,375.9L305.4,290.07L339.33,360.73L373.27,349.69L407.2,371.13L441.13,349.99L475.07,376.73L509,381.61" style="vector-effect: none; fill: none; stroke: rgb(217, 83, 79); stroke-opacity: 1; stroke-width: 2px; opacity: 1;"/></g><g class="points"/><g class="text"/></g><g class="trace scatter trace4cc9e9" style="stroke-miterlimit: 2; opacity: 1;"><g class="fills"/><g class="errorbars"/><g class="lines"><path class="js-line" d="M0,354.8L33.93,364.7L67.87,363.13L101.8,363.63L135.73,365.5L203.6,370.1L237.53,372.3L271.47,374.38L305.4,278.59L339.33,357.86L373.27,347.53L407.2,372.55L441.13,359.21L475.07,380.14L509,383.1" style="vector-effect: none; fill: none; stroke: rgb(217, 83, 79); stroke-opacity: 1; stroke-width: 2px; opacity: 1;"/></g><g class="points"/><g class="text"/></g><g class="trace scatter tracee7602e" style="stroke-miterlimit: 2; opacity: 1;"><g class="fills"/><g class="errorbars"/><g class="lines"><path class="js-line" d="M0,357.81L33.93,364.77L67.87,363.43L101.8,363.61L135.73,365.18L271.47,374.59L305.4,277.11L339.33,357.36L373.27,347.35L407.2,372.35L441.13,359.17L475.07,380.03L509,382.66" style="vector-effect: none; fill: none; stroke: rgb(217, 83, 79); stroke-opacity: 1; stroke-width: 2px; opacity: 1;"/></g><g class="points"/><g class="text"/></g><g class="trace scatter trace0b1e61" style="stroke-miterlimit: 2; opacity: 1;"><g class="fills"/><g class="errorbars"/><g class="lines"><path class="js-line" d="M0,353.79L33.93,362.63L67.87,361.31L135.73,364.76L169.67,367.59L203.6,370.88L237.53,373.1L271.47,375.05L305.4,293.66L339.33,363.24L373.27,353.04L407.2,371.98L441.13,348.18L475.07,373.71L509,379.38" style="vector-effect: none; fill: none; stroke: rgb(217, 83, 79); stroke-opacity: 1; stroke-width: 2px; opacity: 1;"/></g><g class="points"/><g class="text"/></g><g class="trace scatter traceb8006c" style="stroke-miterlimit: 2; opacity: 1;"><g class="fills"/><g class="errorbars"/><g class="lines"><path class="js-line" d="M0,354.59L33.93,362.89L67.87,361.82L135.73,364.84L169.67,367.63L271.47,375.15L305.4,293.28L339.33,363.01L373.27,353.42L407.2,371.19L441.13,348.11L475.07,373.83L509,379.07" style="vector-effect: none; fill: none; stroke: rgb(217, 83, 79); stroke-opacity: 1; stroke-width: 2px; opacity: 1;"/></g><g class="points"/><g class="text"/></g></g></g></g><g class="zerolinelayer-above"/><path class="xlines-above crisp" d="M0,0" style="fill: none;"/><path class="ylines-above crisp" d="M0,0" style="fill: none;"/><g class="overlines-above"/><g class="xaxislayer-above"><g class="xtick"><text text-anchor="middle" x="0" y="451" transform="translate(61,0)" style="font-family: 'Lucida Grande', 'Open Sans', verdana, arial, sans-serif; font-size: 10px; fill: rgb(0, 0, 0); fill-opacity: 1; white-space: pre;">1</text></g><g class="xtick"><text text-anchor="middle" x="0" y="451" transform="translate(94.93,0)" style="font-family: 'Lucida Grande', 'Open Sans', verdana, arial, sans-serif; font-size: 10px; fill: rgb(0, 0, 0); fill-opacity: 1; white-space: pre;">2</text></g><g class="xtick"><text text-anchor="middle" x="0" y="451" transform="translate(128.87,0)" style="font-family: 'Lucida Grande', 'Open Sans', verdana, arial, sans-serif; font-size: 10px; fill: rgb(0, 0, 0); fill-opacity: 1; white-space: pre;">3</text></g><g class="xtick"><text text-anchor="middle" x="0" y="451" transform="translate(162.8,0)" style="font-family: 'Lucida Grande', 'Open Sans', verdana, arial, sans-serif; font-size: 10px; fill: rgb(0, 0, 0); fill-opacity: 1; white-space: pre;">4</text></g><g class="xtick"><text text-anchor="middle" x="0" y="451" transform="translate(196.73,0)" style="font-family: 'Lucida Grande', 'Open Sans', verdana, arial, sans-serif; font-size: 10px; fill: rgb(0, 0, 0); fill-opacity: 1; white-space: pre;">5</text></g><g class="xtick"><text text-anchor="middle" x="0" y="451" transform="translate(230.67,0)" style="font-family: 'Lucida Grande', 'Open Sans', verdana, arial, sans-serif; font-size: 10px; fill: rgb(0, 0, 0); fill-opacity: 1; white-space: pre;">6</text></g><g class="xtick"><text text-anchor="middle" x="0" y="451" transform="translate(264.6,0)" style="font-family: 'Lucida Grande', 'Open Sans', verdana, arial, sans-serif; font-size: 10px; fill: rgb(0, 0, 0); fill-opacity: 1; white-space: pre;">7</text></g><g class="xtick"><text text-anchor="middle" x="0" y="451" transform="translate(298.53,0)" style="font-family: 'Lucida Grande', 'Open Sans', verdana, arial, sans-serif; font-size: 10px; fill: rgb(0, 0, 0); fill-opacity: 1; white-space: pre;">8</text></g><g class="xtick"><text text-anchor="middle" x="0" y="451" transform="translate(332.47,0)" style="font-family: 'Lucida Grande', 'Open Sans', verdana, arial, sans-serif; font-size: 10px; fill: rgb(0, 0, 0); fill-opacity: 1; white-space: pre;">9</text></g><g class="xtick"><text text-anchor="middle" x="0" y="451" transform="translate(366.4,0)" style="font-family: 'Lucida Grande', 'Open Sans', verdana, arial, sans-serif; font-size: 10px; fill: rgb(0, 0, 0); fill-opacity: 1; white-space: pre;">>10</text></g><g class="xtick"><text text-anchor="middle" x="0" y="451" transform="translate(400.33,0)" style="font-family: 'Lucida Grande', 'Open Sans', verdana, arial, sans-serif; font-size: 10px; fill: rgb(0, 0, 0); fill-opacity: 1; white-space: pre;">>50</text></g><g class="xtick"><text text-anchor="middle" x="0" y="451" transform="translate(434.27,0)" style="font-family: 'Lucida Grande', 'Open Sans', verdana, arial, sans-serif; font-size: 10px; fill: rgb(0, 0, 0); fill-opacity: 1; white-space: pre;">>100</text></g><g class="xtick"><text text-anchor="middle" x="0" y="451" transform="translate(468.2,0)" style="font-family: 'Lucida Grande', 'Open Sans', verdana, arial, sans-serif; font-size: 10px; fill: rgb(0, 0, 0); fill-opacity: 1; white-space: pre;">>500</text></g><g class="xtick"><text text-anchor="middle" x="0" y="451" transform="translate(502.13,0)" style="font-family: 'Lucida Grande', 'Open Sans', verdana, arial, sans-serif; font-size: 10px; fill: rgb(0, 0, 0); fill-opacity: 1; white-space: pre;">>1k</text></g><g class="xtick"><text text-anchor="middle" x="0" y="451" transform="translate(536.0699999999999,0)" style="font-family: 'Lucida Grande', 'Open Sans', verdana, arial, sans-serif; font-size: 10px; fill: rgb(0, 0, 0); fill-opacity: 1; white-space: pre;">>5k</text></g><g class="xtick"><text text-anchor="middle" x="0" y="451" transform="translate(570,0)" style="font-family: 'Lucida Grande', 'Open Sans', verdana, arial, sans-serif; font-size: 10px; fill: rgb(0, 0, 0); fill-opacity: 1; white-space: pre;">>10k+</text></g></g><g class="yaxislayer-above"><g class="ytick"><text text-anchor="end" x="55" y="3.5" transform="translate(0,435)" style="font-family: 'Lucida Grande', 'Open Sans', verdana, arial, sans-serif; font-size: 10px; fill: rgb(0, 0, 0); fill-opacity: 1; white-space: pre;">0%</text></g><g class="ytick"><text text-anchor="end" x="55" y="3.5" style="font-family: 'Lucida Grande', 'Open Sans', verdana, arial, sans-serif; font-size: 10px; fill: rgb(0, 0, 0); fill-opacity: 1; white-space: pre;" transform="translate(0,358)">20%</text></g><g class="ytick"><text text-anchor="end" x="55" y="3.5" style="font-family: 'Lucida Grande', 'Open Sans', verdana, arial, sans-serif; font-size: 10px; fill: rgb(0, 0, 0); fill-opacity: 1; white-space: pre;" transform="translate(0,281)">40%</text></g><g class="ytick"><text text-anchor="end" x="55" y="3.5" style="font-family: 'Lucida Grande', 'Open Sans', verdana, arial, sans-serif; font-size: 10px; fill: rgb(0, 0, 0); fill-opacity: 1; white-space: pre;" transform="translate(0,204)">60%</text></g><g class="ytick"><text text-anchor="end" x="55" y="3.5" style="font-family: 'Lucida Grande', 'Open Sans', verdana, arial, sans-serif; font-size: 10px; fill: rgb(0, 0, 0); fill-opacity: 1; white-space: pre;" transform="translate(0,127)">80%</text></g><g class="ytick"><text text-anchor="end" x="55" y="3.5" style="font-family: 'Lucida Grande', 'Open Sans', verdana, arial, sans-serif; font-size: 10px; fill: rgb(0, 0, 0); fill-opacity: 1; white-space: pre;" transform="translate(0,50)">100%</text></g></g><g class="overaxes-above"/></g></g><g class="polarlayer"/><g class="smithlayer"/><g class="ternarylayer"/><g class="geolayer"/><g class="funnelarealayer"/><g class="pielayer"/><g class="iciclelayer"/><g class="treemaplayer"/><g class="sunburstlayer"/><g class="glimages"/><defs id="topdefs-42345e"><g class="clips"/></defs><g class="layer-above"><g class="imagelayer"/><g class="shapelayer"/></g><g class="infolayer"><g class="g-gtitle"><text class="gtitle" x="300" y="25" text-anchor="middle" dy="0em" style="opacity: 1; font-family: 'Lucida Grande', 'Open Sans', verdana, arial, sans-serif; font-size: 20px; fill: rgb(68, 68, 68); fill-opacity: 1; white-space: pre;"><tspan class="line" dy="0em" x="300" y="25">FastQC: Sequence Duplication Levels</tspan><tspan class="line" dy="1.3em" x="300" y="25">​<tspan style="font-size:70%" dy="-0.6em">44 samples</tspan><tspan dy="0.42em">​</tspan></tspan></text></g><g class="g-xtitle"><text class="xtitle" x="315.5" y="487" text-anchor="middle" style="opacity: 0.3; font-family: 'Lucida Grande', 'Open Sans', verdana, arial, sans-serif; font-size: 14px; fill: rgb(0, 0, 0); fill-opacity: 1; white-space: pre;">Sequence Duplication Level</text></g><g class="g-ytitle"><text class="ytitle" transform="rotate(-90,23,242.5)" x="23" y="242.5" text-anchor="middle" style="opacity: 0.3; font-family: 'Lucida Grande', 'Open Sans', verdana, arial, sans-serif; font-size: 14px; fill: rgb(0, 0, 0); fill-opacity: 1; white-space: pre;">% of Library</text></g></g></svg>